<svg xmlns="http://www.w3.org/2000/svg" xmlns:xlink="http://www.w3.org/1999/xlink" width="2000" zoomAndPan="magnify" viewBox="0 0 1500 1499.999933" height="2000" preserveAspectRatio="xMidYMid meet" version="1.0"><path fill="#1ea5ef" d="M 812.894531 713.140625 C 812.558594 708.808594 812.0625 704.308594 811.894531 699.976562 C 811.226562 688.148438 818.390625 668.824219 793.066406 685.152344 C 780.90625 692.980469 774.742188 681.820312 773.410156 669.324219 C 795.234375 668.492188 816.058594 667.992188 802.898438 635.339844 C 800.066406 628.339844 815.558594 623.84375 823.554688 621.84375 C 836.21875 618.511719 833.386719 631.839844 837.71875 638.171875 C 845.882812 639.335938 848.214844 622.675781 857.042969 630.007812 C 862.542969 634.503906 857.375 642.667969 854.542969 648.667969 C 847.878906 662.492188 857.375 664.160156 865.875 660.660156 C 892.03125 649.832031 887.53125 666.160156 884.867188 683.984375 C 876.203125 675.320312 867.207031 675.488281 858.042969 681.320312 C 850.210938 686.316406 839.550781 688.484375 840.382812 702.976562 C 856.042969 700.3125 868.039062 686.148438 886.03125 692.8125 C 894.863281 695.980469 894.695312 683.316406 894.863281 676.820312 C 895.363281 652.164062 896.195312 651.5 918.519531 661.992188 C 921.683594 667.160156 925.683594 671.15625 932.347656 668.65625 C 933.847656 668.15625 935.511719 665.160156 935.179688 663.828125 C 934.011719 657.496094 928.183594 657.996094 923.515625 656.664062 C 928.183594 646 928.015625 637.335938 917.019531 629.339844 C 908.355469 623.175781 898.195312 615.847656 903.691406 601.6875 C 905.359375 597.355469 902.859375 594.523438 897.859375 595.355469 C 885.367188 597.519531 881.699219 587.023438 873.203125 578.027344 C 872.039062 594.6875 864.875 598.6875 850.546875 592.355469 C 845.046875 589.859375 835.386719 589.859375 830.886719 593.1875 C 813.558594 605.851562 809.5625 587.691406 801.398438 581.027344 C 796.402344 577.03125 795.566406 569.367188 803.5625 566.699219 C 810.0625 564.535156 819.890625 561.371094 821.058594 572.53125 C 821.890625 580.527344 822.558594 587.691406 831.554688 584.359375 C 839.050781 581.527344 851.046875 585.027344 853.710938 573.03125 C 855.542969 564.867188 852.046875 560.203125 843.214844 559.871094 C 837.71875 559.703125 837.21875 556.039062 839.382812 552.207031 C 841.882812 547.875 845.882812 545.375 850.546875 549.042969 C 858.542969 555.539062 864.375 564.203125 869.539062 573.699219 C 878.535156 553.039062 871.371094 521.054688 856.210938 511.222656 C 852.710938 508.890625 851.046875 512.222656 848.546875 512.722656 C 824.054688 517.886719 809.230469 510.722656 795.566406 489.898438 C 792.234375 484.902344 788.738281 482.570312 794.066406 477.570312 C 798.398438 473.574219 803.398438 474.738281 805.398438 478.902344 C 810.726562 490.066406 818.890625 483.234375 826.054688 483.234375 C 827.054688 484.402344 828.222656 485.566406 829.222656 486.566406 C 828.554688 491.566406 817.390625 495.898438 829.054688 502.0625 C 835.386719 505.558594 841.714844 506.890625 844.046875 500.726562 C 850.546875 484.234375 864.375 489.566406 876.035156 488.066406 L 875.703125 487.734375 C 867.207031 505.058594 869.371094 519.71875 883.199219 534.378906 C 891.863281 543.542969 886.367188 557.539062 886.867188 569.367188 C 887.363281 579.863281 889.199219 586.191406 901.027344 578.363281 C 907.191406 574.199219 913.6875 570.03125 921.019531 577.363281 C 928.683594 584.859375 922.851562 591.355469 919.351562 597.355469 C 914.019531 606.683594 914.019531 613.179688 923.683594 620.011719 C 930.515625 624.84375 931.515625 634.171875 934.847656 641.667969 C 937.511719 647.332031 937.679688 656.996094 950.007812 651 C 956.671875 647.667969 981.660156 676.820312 979.996094 684.652344 C 977.664062 695.3125 970.664062 683.816406 968.667969 686.316406 C 955.671875 702.144531 941.675781 692.148438 921.519531 684.816406 C 935.679688 702.308594 931.179688 719.136719 942.175781 732.796875 C 950.171875 742.792969 942.175781 754.621094 934.847656 764.117188 C 931.015625 769.28125 924.183594 775.945312 933.011719 780.777344 C 940.175781 784.609375 942.175781 777.277344 944.007812 770.949219 C 945.84375 764.449219 952.507812 761.785156 958.503906 762.953125 C 975.996094 766.117188 981.828125 753.289062 989.324219 742.125 C 991.324219 739.128906 995.324219 734.464844 991.65625 732.632812 C 974.832031 724.632812 987.492188 712.640625 985.992188 702.808594 C 988.492188 707.640625 986.992188 718.96875 993.65625 715.804688 C 1015.980469 705.140625 1033.808594 725.132812 1054.464844 722.136719 C 1059.464844 721.46875 1065.960938 723.96875 1068.460938 717.96875 C 1071.460938 710.972656 1064.628906 709.640625 1060.296875 707.140625 C 1053.632812 703.308594 1054.300781 696.980469 1056.632812 691.316406 C 1059.628906 684.152344 1061.796875 676.988281 1057.464844 669.824219 C 1053.800781 663.828125 1057.964844 652.164062 1048.136719 651.5 C 1039.472656 650.832031 1042.472656 662.992188 1038.304688 666.492188 C 1030.308594 673.324219 1021.144531 678.152344 1020.644531 690.648438 C 1020.480469 693.980469 1014.480469 697.144531 1011.816406 693.648438 C 1004.152344 683.316406 994.988281 693.648438 982.160156 689.480469 C 1002.152344 676.320312 1006.816406 651.832031 1031.476562 646.167969 C 1044.46875 643.167969 1039.472656 627.339844 1047.96875 616.679688 C 1063.796875 635.003906 1065.296875 658.328125 1071.460938 678.988281 C 1074.457031 688.648438 1072.957031 696.3125 1086.453125 697.980469 C 1098.28125 699.476562 1099.449219 707.808594 1091.617188 717.46875 C 1075.957031 736.628906 1052.464844 740.792969 1034.472656 732.296875 C 1007.316406 719.46875 1000.820312 738.628906 994.324219 753.121094 C 987.824219 767.28125 978.828125 774.613281 965.332031 777.945312 C 956.335938 780.109375 948.671875 783.609375 941.84375 789.941406 C 933.847656 797.269531 925.683594 791.773438 919.683594 787.273438 C 914.019531 782.941406 914.519531 770.78125 918.519531 768.949219 C 945.675781 755.789062 929.847656 736.460938 925.683594 720.304688 C 922.851562 709.308594 915.851562 698.8125 911.1875 686.984375 C 906.855469 703.976562 903.691406 720.800781 900.191406 737.128906 C 895.363281 758.285156 890.363281 778.113281 880.199219 797.4375 C 873.535156 810.097656 873.371094 823.925781 895.695312 817.59375 C 902.859375 815.597656 907.855469 818.261719 907.191406 826.425781 C 906.355469 835.921875 906.855469 848.75 896.027344 850.746094 C 885.53125 852.746094 893.195312 840.085938 889.363281 835.421875 C 891.363281 835.085938 893.695312 834.753906 890.695312 832.253906 C 890.195312 833.253906 889.53125 834.253906 889.03125 835.253906 C 884.199219 833.589844 876.867188 840.417969 874.535156 834.585938 C 865.707031 812.265625 847.214844 822.257812 832.21875 820.59375 C 828.886719 820.261719 824.390625 819.761719 822.890625 824.425781 C 821.390625 829.089844 825.054688 830.921875 827.722656 833.589844 C 833.21875 838.917969 839.550781 842.25 847.046875 843.75 C 851.546875 844.75 859.042969 842.085938 859.542969 849.746094 C 859.875 855.414062 854.378906 858.578125 850.046875 861.410156 C 847.046875 863.410156 843.046875 864.074219 839.882812 866.074219 C 835.050781 869.074219 823.054688 867.40625 828.386719 877.570312 C 831.71875 883.734375 839.882812 891.5625 849.046875 884.898438 C 867.871094 871.238281 883.03125 885.734375 899.027344 890.898438 C 906.191406 893.230469 912.6875 904.226562 920.519531 896.394531 C 926.683594 890.230469 917.019531 883.066406 915.6875 876.070312 C 915.1875 873.570312 913.355469 871.238281 914.1875 867.40625 C 932.511719 875.238281 941.84375 891.898438 948.671875 908.390625 C 952.171875 916.886719 944.507812 923.882812 933.511719 919.386719 C 920.351562 914.054688 907.191406 908.390625 894.027344 903.226562 C 888.53125 901.058594 881.535156 897.894531 878.867188 905.890625 C 876.203125 913.722656 880.035156 919.050781 888.863281 919.050781 C 899.691406 919.050781 905.023438 922.382812 898.695312 933.878906 C 895.527344 939.542969 896.195312 945.375 899.859375 950.871094 C 903.859375 956.871094 905.359375 964.53125 903.023438 970.363281 C 895.859375 989.1875 892.527344 1008.847656 887.699219 1028.171875 C 885.199219 1038.503906 879.867188 1041.5 873.703125 1030.171875 C 869.703125 1023.007812 865.707031 1015.679688 863.039062 1008.015625 C 861.375 1003.351562 861.542969 998.683594 868.371094 995.519531 C 894.527344 983.523438 899.027344 951.871094 875.035156 937.542969 C 863.707031 930.714844 859.375 925.882812 862.707031 913.886719 C 864.207031 908.554688 863.875 903.390625 858.375 900.058594 C 855.042969 898.0625 851.046875 897.226562 847.878906 900.058594 C 842.050781 905.058594 848.214844 909.722656 848.878906 914.386719 C 854.710938 947.707031 854.878906 947.707031 843.882812 963.867188 C 858.210938 966.199219 878.867188 968.53125 865.039062 988.023438 C 858.710938 996.851562 848.878906 1009.515625 834.21875 1012.179688 C 822.554688 1014.179688 814.226562 1019.675781 820.390625 1033.835938 C 822.554688 1038.835938 820.222656 1042.667969 816.226562 1045.332031 C 812.226562 1047.996094 776.742188 1036.167969 774.410156 1031.171875 C 769.242188 1020.507812 762.578125 1018.84375 753.25 1026.507812 C 741.089844 1036.503906 733.257812 1037.835938 730.09375 1018.175781 C 727.59375 1001.851562 716.429688 998.019531 702.105469 1007.515625 C 693.941406 1012.847656 685.941406 1018.175781 677.78125 1023.339844 C 652.957031 1039 629.132812 1053.828125 634.128906 1090.648438 C 635.960938 1104.140625 633.296875 1120.132812 627.800781 1134.628906 C 616.46875 1163.78125 632.132812 1186.773438 649.625 1207.097656 C 658.453125 1217.425781 658.453125 1226.089844 652.125 1235.085938 C 645.125 1244.75 634.464844 1242.417969 625.964844 1237.085938 C 615.96875 1230.589844 606.472656 1223.089844 597.8125 1214.929688 C 576.652344 1195.4375 553.996094 1188.773438 526.503906 1201.933594 C 507.679688 1210.929688 497.015625 1205.597656 488.1875 1184.109375 C 484.023438 1174.113281 477.023438 1178.941406 471.359375 1180.277344 C 456.867188 1183.773438 454.867188 1175.113281 458.03125 1165.28125 C 462.363281 1152.621094 468.695312 1140.625 475.027344 1128.632812 C 493.683594 1092.644531 497.683594 1057.992188 468.695312 1024.839844 C 459.03125 1013.679688 458.199219 998.519531 452.703125 985.523438 C 447.703125 973.863281 440.539062 975.363281 431.375 975.695312 C 422.214844 976.195312 415.882812 976.695312 415.050781 988.523438 C 414.550781 995.6875 411.71875 1009.015625 401.554688 1004.515625 C 388.058594 998.683594 368.734375 1012.679688 360.070312 991.6875 C 355.574219 980.691406 348.574219 970.863281 342.410156 960.535156 C 339.578125 955.871094 338.746094 946.539062 330.582031 951.039062 C 323.75 954.871094 325.917969 963.035156 329.082031 969.03125 C 332.75 976.195312 345.910156 979.027344 338.246094 990.855469 C 329.914062 1004.015625 320.917969 1018.511719 307.257812 1024.507812 C 289.597656 1032.339844 289.097656 1009.015625 290.765625 1005.347656 C 300.261719 985.691406 278.769531 970.03125 285.765625 951.039062 C 286.765625 948.207031 280.433594 934.210938 266.441406 941.542969 C 254.613281 947.707031 244.117188 942.042969 245.449219 926.550781 C 246.617188 912.222656 250.613281 897.894531 228.121094 897.726562 C 223.625 897.726562 220.625 893.230469 222.792969 887.566406 C 229.953125 869.238281 231.621094 847.082031 255.613281 840.253906 C 260.609375 838.753906 265.273438 836.085938 266.109375 829.921875 C 269.273438 808.597656 279.101562 815.261719 290.265625 823.925781 C 305.09375 835.253906 319.421875 831.257812 329.25 812.597656 C 322.753906 812.597656 315.753906 810.597656 311.089844 812.929688 C 298.429688 819.59375 291.597656 811.929688 284.601562 804.265625 C 275.9375 794.769531 285.101562 789.941406 290.429688 784.109375 C 292.929688 781.277344 295.597656 778.277344 291.429688 774.613281 C 288.433594 772.113281 284.101562 769.613281 281.933594 773.78125 C 272.605469 791.605469 248.78125 784.277344 239.453125 800.769531 C 230.953125 793.9375 234.121094 785.941406 233.785156 778.777344 C 233.285156 770.113281 234.121094 761.785156 220.957031 763.785156 C 205.632812 766.117188 207.128906 754.289062 209.628906 746.292969 C 213.460938 733.796875 216.128906 721.800781 213.792969 708.972656 C 212.296875 700.3125 216.960938 697.644531 225.125 696.144531 C 241.449219 693.3125 240.949219 685.152344 230.121094 675.320312 C 220.457031 666.660156 211.796875 656.996094 209.296875 644.167969 C 207.128906 632.671875 208.464844 621.34375 225.625 629.507812 C 227.621094 630.507812 230.289062 631.507812 232.121094 631.007812 C 245.617188 627.507812 260.777344 661.328125 272.9375 629.339844 C 278.601562 614.347656 292.929688 603.019531 283.765625 582.359375 C 276.4375 565.867188 292.597656 545.042969 314.421875 537.210938 C 330.25 531.546875 340.078125 522.886719 333.582031 503.558594 C 326.582031 504.894531 319.585938 506.890625 312.421875 507.390625 C 308.089844 507.726562 302.09375 514.554688 299.261719 506.558594 C 297.429688 501.226562 296.429688 493.398438 302.59375 490.230469 C 316.085938 483.234375 320.753906 468.574219 331.414062 459.078125 C 342.078125 449.582031 351.40625 442.753906 367.234375 447.75 C 383.0625 452.75 397.390625 438.753906 417.882812 442.753906 C 405.886719 426.59375 396.390625 416.929688 396.390625 397.105469 C 396.390625 356.789062 413.214844 340.960938 455.699219 340.960938 C 486.855469 340.960938 517.84375 347.125 548.996094 343.460938 C 555.992188 342.628906 562.324219 342.960938 568.15625 347.625 C 597.8125 371.449219 629.132812 364.117188 660.621094 352.457031 C 661.285156 352.125 661.785156 351.289062 662.453125 351.289062 C 677.113281 349.457031 695.4375 349.625 698.9375 332.796875 C 701.605469 319.304688 695.441406 303.8125 692.773438 289.316406 C 688.941406 268.824219 701.269531 246.5 719.761719 241.335938 C 727.761719 239.171875 731.425781 245.667969 732.925781 250.667969 C 736.089844 261.996094 743.753906 267.992188 753.25 273.15625 C 759.914062 276.820312 765.578125 282.484375 765.414062 290.816406 C 765.246094 301.976562 766.246094 311.140625 779.90625 314.304688 C 785.238281 315.640625 786.570312 322.46875 782.238281 327.46875 C 767.078125 344.460938 754.082031 364.953125 726.925781 363.285156 C 720.929688 362.953125 714.265625 361.285156 713.097656 369.949219 C 712.101562 377.28125 717.097656 380.613281 723.09375 382.945312 C 736.757812 388.441406 748.753906 398.9375 764.914062 398.105469 C 768.410156 397.9375 773.074219 399.269531 775.410156 401.769531 C 797.066406 424.925781 817.226562 402.4375 837.882812 401.4375 C 834.71875 418.261719 834.886719 418.761719 819.222656 419.09375 C 807.5625 419.429688 803.0625 427.757812 795.566406 433.257812 C 776.40625 447.417969 782.074219 462.242188 781.40625 479.070312 C 781.074219 486.734375 770.910156 490.398438 761.914062 485.066406 C 739.753906 472.074219 741.921875 484.402344 744.585938 500.5625 C 747.585938 518.21875 759.082031 529.714844 770.742188 541.210938 C 777.242188 547.542969 785.738281 546.875 793.566406 539.546875 C 784.570312 534.214844 774.910156 529.882812 767.410156 523.386719 C 763.414062 519.886719 755.582031 512.890625 761.914062 506.726562 C 768.078125 500.726562 777.242188 496.730469 786.570312 503.058594 C 798.234375 511.058594 781.238281 514.222656 783.40625 520.71875 C 789.902344 527.550781 806.394531 518.71875 806.230469 536.046875 C 806.0625 549.207031 787.738281 560.035156 772.242188 554.707031 C 758.746094 550.039062 751.75 538.378906 742.921875 528.214844 C 734.757812 518.71875 722.09375 513.222656 731.925781 497.730469 C 732.925781 496.0625 730.425781 492.230469 729.757812 489.398438 C 725.429688 470.074219 730.425781 465.242188 750.585938 469.574219 C 756.582031 470.90625 763.078125 478.402344 768.410156 470.074219 C 772.410156 464.078125 766.746094 457.914062 763.078125 454.082031 C 749.917969 439.921875 748.585938 426.425781 767.078125 411.597656 C 744.421875 408.765625 730.09375 392.273438 709.601562 393.605469 C 703.769531 393.941406 695.773438 393.273438 696.9375 402.101562 C 698.105469 410.597656 704.769531 406.101562 709.265625 404.769531 C 716.097656 402.769531 720.761719 406.601562 720.429688 411.933594 C 719.429688 429.757812 725.429688 450.25 704.269531 461.746094 C 702.269531 462.742188 700.4375 464.242188 698.773438 465.574219 C 674.613281 484.902344 674.449219 484.902344 655.953125 459.246094 C 652.125 453.914062 649.957031 450.082031 642.292969 455.914062 C 630.632812 464.742188 619.136719 460.746094 611.472656 449.582031 C 602.308594 436.253906 594.644531 421.761719 586.480469 407.765625 C 582.652344 401.269531 587.648438 398.605469 591.8125 395.273438 C 601.976562 387.277344 614.136719 385.609375 625.964844 386.941406 C 649.457031 389.609375 630.632812 406.933594 635.628906 418.761719 C 651.289062 402.4375 661.785156 412.097656 672.117188 424.925781 C 677.613281 431.757812 682.445312 430.589844 683.777344 421.429688 C 685.445312 409.265625 683.609375 400.4375 671.78125 390.941406 C 646.792969 370.78125 620.96875 368.617188 592.148438 377.445312 C 583.484375 380.113281 579.652344 374.113281 575.820312 368.785156 C 566.988281 356.457031 555.160156 353.625 540.5 353.457031 C 507.011719 352.957031 473.691406 350.789062 440.207031 349.457031 C 429.378906 349.125 422.046875 355.121094 417.882812 364.617188 C 412.550781 376.78125 423.046875 374.113281 429.042969 377.28125 C 434.375 379.945312 439.375 387.109375 440.371094 392.941406 C 441.871094 401.9375 432.710938 401.4375 426.542969 403.769531 C 419.714844 406.269531 411.21875 409.765625 413.050781 418.929688 C 414.214844 425.425781 422.214844 421.429688 426.542969 423.425781 C 433.375 426.757812 448.035156 412.597656 447.535156 432.257812 C 447.203125 446.417969 426.710938 466.410156 416.382812 460.410156 C 393.890625 447.417969 374.066406 471.074219 352.074219 461.410156 C 346.910156 459.078125 337.746094 467.410156 331.914062 476.570312 C 340.910156 481.070312 359.40625 478.402344 352.242188 494.5625 C 344.910156 510.890625 359.070312 538.210938 328.082031 543.375 C 321.085938 544.542969 314.089844 548.707031 308.589844 553.207031 C 298.59375 561.535156 298.261719 572.03125 310.589844 577.527344 C 319.917969 581.695312 326.917969 585.191406 325.917969 596.1875 C 324.917969 607.851562 316.921875 611.015625 306.09375 613.515625 C 287.433594 617.84375 284.265625 636.835938 276.769531 651 C 270.605469 662.492188 265.609375 665.992188 256.113281 654.996094 C 252.113281 650.332031 247.113281 646.667969 240.785156 646.5 C 236.121094 646.332031 230.121094 642.167969 226.957031 649.164062 C 224.625 654.164062 228.621094 657.328125 231.621094 660.660156 C 246.28125 675.820312 264.941406 690.816406 234.453125 708.972656 C 232.121094 710.304688 231.453125 714.804688 235.121094 716.304688 C 237.453125 717.304688 242.449219 717.304688 243.28125 715.804688 C 253.445312 698.644531 275.269531 700.8125 287.765625 687.984375 C 295.929688 679.484375 298.761719 683.152344 299.59375 692.648438 C 300.761719 707.808594 296.761719 720.800781 283.433594 729.632812 C 276.105469 734.464844 268.773438 739.128906 260.441406 744.292969 C 269.605469 752.621094 279.769531 759.621094 290.429688 758.453125 C 313.421875 755.953125 312.257812 766.949219 306.757812 782.277344 C 305.757812 785.109375 304.925781 787.941406 304.09375 790.9375 C 301.761719 798.9375 306.925781 799.769531 312.757812 799.4375 C 318.085938 799.269531 324.585938 799.4375 320.585938 790.9375 C 311.921875 772.113281 319.421875 766.449219 338.078125 768.28125 C 345.410156 768.949219 351.40625 764.285156 353.574219 757.621094 C 355.238281 752.457031 351.574219 748.125 346.742188 744.792969 C 334.414062 735.960938 337.414062 705.140625 351.742188 698.8125 C 361.402344 694.480469 370.566406 693.3125 383.0625 694.8125 C 418.214844 699.3125 444.539062 723.132812 477.859375 729.964844 C 487.519531 731.964844 488.6875 741.128906 493.519531 748.125 C 502.347656 743.625 503.679688 734.628906 508.011719 727.800781 C 513.511719 718.96875 522.339844 713.972656 532.835938 715.972656 C 544.5 717.96875 543.832031 726.132812 540 734.796875 C 538.667969 737.960938 539.5 741.460938 543.5 740.792969 C 549.496094 739.792969 558.160156 742.460938 559.824219 733.128906 C 561.160156 725.300781 562.324219 716.96875 572.320312 717.96875 C 583.148438 719.136719 588.816406 726.632812 591.480469 737.128906 C 593.144531 743.792969 592.8125 749.957031 592.648438 756.621094 C 592.480469 764.117188 593.8125 772.945312 604.140625 775.945312 C 613.140625 778.445312 620.96875 777.777344 626.46875 770.449219 C 632.632812 762.285156 643.292969 755.621094 641.792969 744.292969 C 639.128906 722.96875 656.621094 727.300781 666.949219 723.800781 C 677.78125 720.136719 689.609375 719.136719 695.105469 733.628906 C 701.4375 750.125 694.105469 766.449219 693.441406 782.777344 C 693.109375 789.105469 685.777344 782.609375 682.777344 778.609375 C 678.445312 772.78125 672.117188 771.28125 667.449219 775.945312 C 662.621094 780.945312 668.449219 784.441406 671.949219 788.441406 C 681.945312 799.769531 691.109375 811.429688 684.945312 828.589844 C 682.777344 834.753906 681.445312 842.917969 686.941406 847.75 C 692.941406 853.078125 697.273438 844.917969 702.605469 843.25 C 719.429688 838.253906 729.59375 829.257812 727.261719 809.265625 C 725.929688 798.4375 733.425781 795.769531 741.253906 803.265625 C 748.753906 810.429688 757.914062 813.261719 767.410156 815.261719 C 785.40625 819.261719 801.066406 823.925781 795.566406 848.75 C 793.234375 859.242188 806.230469 863.742188 812.726562 869.40625 C 817.558594 873.570312 820.890625 862.910156 825.890625 859.910156 C 832.054688 856.246094 831.054688 851.582031 826.222656 847.25 C 820.058594 841.75 813.726562 836.421875 808.0625 830.589844 C 801.066406 823.425781 796.234375 814.929688 808.5625 809.265625 C 816.558594 805.601562 815.726562 801.601562 816.058594 794.105469 C 817.226562 772.28125 821.222656 751.621094 788.738281 772.113281 C 782.238281 776.277344 777.574219 771.78125 779.074219 763.285156 C 779.90625 757.621094 782.074219 750.457031 773.242188 748.957031 C 766.746094 747.957031 760.582031 751.289062 758.414062 756.953125 C 752.585938 772.613281 737.257812 774.445312 725.59375 781.777344 C 718.597656 786.109375 712.765625 785.773438 707.433594 780.777344 C 702.269531 775.777344 699.9375 769.113281 703.601562 762.285156 C 711.765625 747.125 710.601562 732.296875 700.769531 718.804688 C 685.777344 698.3125 700.4375 673.15625 689.441406 652.164062 C 687.109375 647.832031 687.109375 642.335938 686.445312 636.335938 C 695.441406 656.164062 729.59375 633.503906 732.59375 664.992188 C 704.601562 655.828125 703.601562 656.828125 709.269531 687.816406 C 723.929688 681.652344 741.421875 682.152344 754.25 667.15625 C 747.585938 687.984375 748.253906 702.644531 774.074219 702.808594 C 784.570312 702.976562 778.074219 715.972656 785.238281 720.800781 C 793.402344 715.304688 802.066406 708.972656 813.394531 713.304688 C 810.226562 726.300781 786.570312 728.300781 794.402344 749.125 C 799.066406 744.792969 802.730469 741.292969 806.398438 737.960938 C 807.5625 739.292969 808.894531 740.628906 810.0625 741.960938 C 815.726562 757.453125 823.058594 744.792969 829.554688 742.960938 C 835.550781 741.125 836.050781 731.632812 845.046875 732.796875 C 867.871094 735.460938 863.375 719.636719 864.039062 706.308594 C 856.542969 705.308594 855.210938 710.804688 851.546875 712.972656 C 842.214844 718.304688 832.21875 739.960938 824.890625 710.472656 C 823.054688 702.808594 817.890625 714.636719 812.894531 713.140625 Z M 592.148438 883.902344 L 592.480469 884.234375 C 591.648438 896.230469 579.816406 909.390625 596.476562 919.886719 C 597.644531 920.71875 597.3125 925.882812 596.144531 928.382812 C 582.652344 956.035156 587.980469 978.695312 613.304688 997.1875 C 624.132812 987.855469 625.46875 973.53125 630.464844 961.367188 C 635.796875 948.207031 639.792969 935.210938 650.789062 924.714844 C 673.78125 902.726562 675.28125 888.730469 660.453125 860.242188 C 658.121094 855.578125 660.285156 851.582031 661.953125 847.414062 C 672.949219 821.09375 650.125 805.101562 642.292969 784.609375 C 640.628906 780.109375 635.796875 780.777344 632.632812 782.941406 C 618.46875 792.605469 599.144531 784.277344 583.148438 802.269531 C 584.316406 780.109375 587.980469 760.953125 564.992188 756.289062 C 548.832031 753.121094 532.171875 768.617188 516.175781 755.289062 C 514.675781 757.621094 512.84375 759.785156 511.679688 762.285156 C 508.179688 770.28125 505.679688 778.277344 509.347656 787.441406 C 528.003906 777.113281 547.496094 794.105469 565.324219 782.777344 C 568.65625 780.609375 573.652344 777.613281 577.484375 782.277344 C 581.152344 786.609375 577.152344 790.605469 575.488281 794.605469 C 567.324219 815.597656 563.824219 836.585938 573.488281 858.410156 C 575.820312 863.742188 575.820312 870.738281 570.988281 879.234375 C 567.824219 873.070312 565.988281 870.074219 564.65625 866.742188 C 557.160156 847.75 532.835938 847.914062 523.839844 830.589844 C 496.015625 839.917969 481.191406 835.085938 491.851562 801.769531 C 492.351562 800.269531 488.6875 797.4375 489.1875 795.9375 C 495.351562 779.445312 470.695312 776.113281 474.191406 763.449219 C 481.023438 739.128906 465.695312 735.960938 449.035156 733.128906 C 443.203125 732.128906 436.042969 724.46875 431.375 733.964844 C 428.042969 740.960938 432.375 746.457031 437.707031 751.457031 C 465.03125 777.613281 464.863281 777.777344 430.210938 792.4375 C 428.878906 792.9375 427.210938 792.9375 425.710938 793.273438 C 421.878906 793.9375 417.382812 795.105469 419.214844 799.769531 C 420.378906 802.601562 424.378906 805.101562 427.542969 806.433594 C 432.375 808.433594 435.707031 804.765625 439.371094 801.933594 C 447.371094 795.769531 456.367188 795.105469 463.863281 802.101562 C 472.359375 809.929688 464.695312 817.429688 461.53125 824.425781 C 453.367188 841.75 433.207031 848.914062 415.050781 841.417969 C 410.550781 839.585938 406.550781 838.253906 402.222656 840.585938 C 379.394531 852.746094 383.394531 833.589844 382.5625 822.757812 C 382.0625 815.761719 386.894531 809.097656 380.394531 801.933594 C 365.734375 785.773438 371.566406 775.613281 391.058594 769.949219 C 398.722656 767.617188 409.550781 763.785156 401.054688 753.289062 C 393.722656 744.125 394.558594 736.796875 398.054688 726.800781 C 402.71875 713.804688 392.390625 710.640625 382.5625 707.308594 C 372.066406 703.644531 361.902344 700.144531 355.40625 712.472656 C 352.742188 717.636719 347.742188 725.964844 362.238281 724.132812 C 373.898438 722.636719 376.5625 732.296875 371.734375 740.460938 C 361.570312 757.121094 360.070312 777.113281 351.242188 793.273438 C 340.578125 812.761719 344.910156 835.421875 332.914062 854.746094 C 328.082031 862.410156 314.089844 876.570312 321.585938 882.066406 C 331.75 889.566406 348.242188 884.566406 361.738281 879.234375 C 375.066406 873.90625 389.226562 868.90625 380.394531 893.394531 C 378.5625 898.226562 383.226562 901.558594 384.226562 905.558594 C 388.726562 924.050781 408.550781 936.710938 409.21875 953.203125 C 409.882812 970.53125 417.214844 965.199219 424.710938 963.867188 C 436.875 961.535156 443.371094 952.871094 447.203125 941.210938 C 453.367188 922.21875 468.695312 919.050781 483.523438 932.546875 C 488.355469 936.878906 494.351562 940.375 500.183594 943.375 C 504.847656 945.875 514.511719 941.210938 514.34375 949.871094 C 514.34375 956.535156 511.179688 963.699219 502.015625 966.699219 C 496.351562 968.699219 487.1875 973.195312 492.683594 983.027344 C 498.351562 992.855469 510.34375 994.355469 515.34375 987.855469 C 527.839844 971.53125 539.332031 976.527344 553.828125 983.027344 C 560.324219 985.859375 568.15625 992.355469 577.820312 986.355469 C 576.152344 981.691406 576.152344 975.027344 572.820312 972.363281 C 550.664062 955.035156 539 926.382812 510.511719 916.054688 C 504.847656 914.054688 497.683594 911.054688 501.683594 903.558594 C 506.179688 895.0625 509.34375 904.726562 513.34375 905.722656 C 520.339844 907.558594 529.003906 909.054688 534.335938 903.558594 C 540.167969 897.394531 537.5 889.566406 532.335938 883.234375 C 529.335938 879.570312 526.503906 875.738281 531.171875 871.738281 C 536.335938 867.242188 541 869.574219 544.664062 874.070312 C 548.996094 879.234375 553.828125 885.066406 552.996094 892.0625 C 551.496094 903.890625 557.660156 913.722656 559.324219 924.714844 C 560.492188 931.714844 560.992188 939.542969 570.488281 937.542969 C 578.320312 935.878906 579.484375 928.214844 578.484375 921.050781 C 577.652344 915.21875 576.484375 909.222656 574.988281 903.558594 C 570.988281 888.398438 577.152344 882.402344 592.148438 883.902344 Z M 709.433594 862.242188 C 683.109375 902.558594 664.785156 942.210938 655.957031 986.191406 C 680.777344 969.199219 696.105469 945.207031 708.433594 919.21875 C 710.101562 915.554688 708.933594 908.222656 714.933594 910.554688 C 731.757812 917.386719 739.589844 907.390625 746.917969 895.5625 C 752.417969 886.398438 761.582031 887.066406 768.578125 890.5625 C 776.90625 894.730469 770.910156 902.890625 768.746094 908.390625 C 765.914062 915.886719 761.082031 922.550781 757.082031 929.546875 C 755.417969 932.546875 755.582031 935.046875 758.25 937.378906 C 759.914062 938.878906 761.082031 939.042969 763.578125 937.878906 C 789.238281 926.882812 800.066406 892.730469 782.574219 870.574219 C 776.90625 863.242188 774.410156 858.078125 778.90625 851.414062 C 791.402344 832.753906 779.242188 828.421875 764.414062 825.257812 C 756.25 823.425781 748.253906 821.425781 739.753906 819.261719 C 737.089844 834.753906 749.085938 840.085938 756.082031 848.082031 C 766.746094 860.242188 763.078125 870.074219 749.085938 872.238281 C 734.257812 874.570312 721.929688 879.902344 710.765625 891.0625 C 705.269531 881.566406 713.765625 874.90625 709.433594 862.242188 Z M 688.609375 355.121094 C 694.273438 357.289062 699.273438 360.785156 700.9375 359.621094 C 712.765625 350.957031 724.929688 351.289062 739.257812 351.457031 C 752.417969 351.789062 769.410156 331.464844 763.746094 326.300781 C 750.917969 314.804688 756.25 302.644531 752.75 291.316406 C 747.917969 275.824219 722.597656 266.828125 712.265625 277.320312 C 702.4375 287.316406 708.769531 299.144531 711.933594 310.308594 C 719.597656 337.796875 716.765625 343.128906 688.609375 355.121094 Z M 489.6875 1005.847656 C 515.011719 1009.015625 517.007812 1025.675781 516.34375 1044.667969 C 515.84375 1057.660156 519.675781 1069.65625 526.339844 1080.816406 C 529.003906 1085.316406 531.503906 1090.648438 537.5 1090.3125 C 543.332031 1089.980469 546.332031 1085.316406 547.996094 1080.152344 C 555.828125 1053.828125 553.160156 1027.007812 550.164062 1000.519531 C 549.332031 993.855469 540.667969 981.191406 533.503906 989.023438 C 521.007812 1002.851562 505.515625 1000.183594 489.6875 1005.847656 Z M 752.25 1010.515625 C 763.746094 1007.683594 776.574219 997.6875 776.40625 1018.34375 C 776.40625 1022.84375 779.40625 1024.007812 784.070312 1021.507812 C 798.398438 1013.847656 807.5625 996.851562 827.554688 999.183594 C 832.71875 999.851562 832.054688 992.023438 828.554688 988.855469 C 824.722656 985.523438 819.390625 983.859375 815.058594 981.027344 C 771.078125 951.871094 764.578125 954.539062 752.25 1010.515625 Z M 689.773438 983.027344 C 712.433594 984.859375 730.757812 981.191406 748.253906 973.03125 C 754.917969 970.03125 758.582031 964.035156 753.25 959.367188 C 740.253906 947.875 746.585938 934.546875 746.917969 920.550781 C 725.761719 938.710938 703.601562 955.371094 689.773438 983.027344 Z M 796.066406 945.707031 C 791.402344 961.867188 805.898438 962.867188 815.558594 964.699219 C 825.554688 966.53125 834.71875 955.203125 833.886719 949.039062 C 831.886719 933.878906 815.226562 934.710938 804.0625 931.378906 C 792.734375 928.214844 796.566406 938.710938 796.066406 945.707031 Z M 806.894531 906.890625 C 803.0625 928.382812 819.558594 923.382812 828.554688 927.050781 C 835.21875 929.714844 839.21875 924.382812 837.550781 918.550781 C 834.386719 906.222656 830.386719 892.0625 815.394531 890.730469 C 802.230469 889.398438 808.5625 902.558594 806.894531 906.890625 Z M 663.617188 451.914062 C 663.785156 435.753906 666.785156 420.09375 642.628906 429.257812 C 639.296875 430.589844 635.296875 429.425781 631.632812 429.925781 C 626.464844 430.589844 617.804688 426.425781 618.804688 436.589844 C 619.636719 444.75 627.132812 443.585938 632.964844 442.917969 C 643.792969 441.585938 653.789062 443.085938 663.617188 451.914062 Z M 878.535156 742.292969 C 887.199219 730.464844 893.695312 721.800781 899.859375 712.804688 C 901.859375 709.808594 902.859375 705.640625 900.027344 702.476562 C 896.527344 698.644531 893.027344 702.144531 890.195312 703.644531 C 875.703125 711.140625 873.703125 723.46875 878.535156 742.292969 Z M 355.574219 954.539062 C 358.738281 954.203125 375.566406 927.214844 374.230469 924.382812 C 372.234375 920.386719 368.066406 919.21875 365.070312 922.050781 C 357.570312 929.214844 351.90625 938.042969 348.910156 948.207031 C 347.742188 952.371094 350.90625 955.039062 355.574219 954.539062 Z M 598.476562 1023.507812 C 604.476562 1019.84375 609.804688 1017.011719 610.140625 1010.015625 C 610.304688 1004.851562 608.140625 1000.683594 602.308594 1002.683594 C 596.976562 1004.515625 588.816406 1005.183594 588.816406 1012.011719 C 588.816406 1015.84375 594.980469 1019.675781 598.476562 1023.507812 Z M 295.429688 965.867188 C 306.425781 953.039062 313.253906 945.207031 320.085938 937.378906 C 308.757812 941.710938 295.429688 943.875 295.429688 965.867188 Z M 700.605469 419.929688 C 691.609375 428.59375 688.941406 437.921875 692.273438 448.582031 C 693.273438 451.75 697.105469 452.75 699.605469 450.75 C 709.269531 442.753906 705.769531 432.421875 703.769531 422.429688 C 703.769531 421.929688 702.9375 421.761719 700.605469 419.929688 Z M 405.886719 978.195312 C 406.550781 972.53125 404.21875 970.199219 398.554688 970.699219 C 392.390625 971.03125 388.726562 973.695312 389.726562 980.195312 C 390.390625 984.859375 393.558594 988.191406 398.390625 988.523438 C 405.886719 989.023438 405.886719 983.523438 405.886719 978.195312 Z M 624.132812 404.101562 C 623.800781 398.105469 618.46875 397.9375 613.472656 398.105469 C 609.472656 398.269531 603.140625 396.9375 603.476562 402.769531 C 603.808594 408.765625 608.808594 413.097656 615.472656 413.265625 C 620.136719 413.429688 623.300781 410.433594 624.132812 404.101562 Z M 853.210938 789.605469 C 843.214844 793.273438 836.882812 796.605469 838.71875 806.265625 C 839.050781 807.597656 842.546875 809.929688 843.546875 809.433594 C 850.046875 806.101562 851.378906 799.601562 853.210938 789.605469 Z M 803.0625 1020.84375 L 801.730469 1020.011719 L 801.730469 1021.507812 Z M 330.75 480.402344 C 330.25 479.902344 329.914062 479.402344 329.417969 478.902344 C 328.917969 479.402344 328.417969 479.738281 328.082031 480.238281 C 328.75 480.738281 329.417969 481.238281 330.082031 481.734375 C 330.25 481.238281 330.414062 480.902344 330.75 480.402344 Z M 330.75 480.402344 " fill-opacity="1" fill-rule="nonzero"/><path fill="#84c021" d="M 307.425781 1398.019531 C 323.917969 1386.855469 317.085938 1375.695312 312.257812 1365.53125 C 305.09375 1350.703125 295.929688 1337.042969 284.933594 1324.546875 C 271.9375 1309.554688 273.105469 1287.898438 285.765625 1278.566406 C 296.929688 1270.40625 306.757812 1271.902344 314.253906 1283.734375 C 316.585938 1287.230469 315.089844 1291.394531 311.421875 1293.394531 C 308.425781 1294.894531 306.09375 1293.394531 305.257812 1289.730469 C 302.761719 1278.066406 296.261719 1279.402344 289.433594 1285.730469 C 281.433594 1293.0625 283.765625 1301.558594 291.429688 1306.722656 C 300.761719 1313.21875 312.089844 1312.386719 321.085938 1306.222656 C 330.082031 1300.226562 335.582031 1291.0625 331.75 1279.234375 C 326.582031 1262.90625 315.089844 1253.746094 298.09375 1255.410156 C 282.433594 1257.078125 268.273438 1264.574219 267.605469 1282.734375 C 266.441406 1314.21875 267.441406 1345.707031 266.773438 1377.191406 C 266.605469 1386.855469 277.269531 1389.355469 278.101562 1399.015625 C 258.609375 1399.015625 239.617188 1399.015625 214.292969 1399.015625 C 236.953125 1385.023438 236.453125 1366.863281 234.453125 1349.539062 C 231.289062 1322.382812 245.78125 1292.230469 220.792969 1268.40625 C 216.128906 1264.074219 222.457031 1258.910156 225.957031 1255.246094 C 250.445312 1229.921875 298.929688 1222.757812 330.25 1239.25 C 350.242188 1249.746094 360.402344 1265.574219 357.40625 1288.5625 C 354.738281 1309.554688 342.078125 1319.71875 321.753906 1322.214844 C 317.585938 1322.714844 313.589844 1325.714844 309.421875 1327.546875 C 310.757812 1329.546875 311.257812 1331.378906 312.257812 1331.710938 C 322.085938 1335.042969 341.910156 1353.035156 346.242188 1363.699219 C 351.574219 1377.191406 359.238281 1388.523438 371.734375 1398.351562 C 352.074219 1398.019531 332.082031 1398.019531 307.425781 1398.019531 Z M 307.425781 1398.019531 " fill-opacity="1" fill-rule="nonzero"/><path fill="#84c021" d="M 615.804688 1400.183594 C 631.132812 1375.527344 625.964844 1352.703125 625.800781 1330.546875 C 625.800781 1320.050781 621.636719 1307.722656 608.808594 1307.890625 C 594.644531 1308.054688 591.3125 1320.882812 591.3125 1332.378906 C 591.3125 1354.371094 586.980469 1377.027344 598.8125 1399.183594 C 584.316406 1400.351562 571.988281 1401.351562 558.660156 1398.351562 C 568.488281 1374.527344 563.492188 1350.371094 564.324219 1326.714844 C 564.65625 1316.71875 560.324219 1308.222656 549.332031 1308.054688 C 538.667969 1307.890625 533.003906 1316.050781 533.167969 1326.046875 C 533.503906 1350.203125 529.171875 1374.859375 538 1399.351562 C 525.671875 1399.351562 514.011719 1399.351562 501.347656 1399.351562 C 506.347656 1369.53125 506.347656 1340.542969 502.515625 1311.222656 C 499.851562 1291.0625 521.839844 1301.390625 528.339844 1291.894531 C 537.667969 1304.558594 544.832031 1291.894531 552.664062 1289.730469 C 568.988281 1285.066406 583.148438 1303.722656 592.480469 1300.058594 C 605.640625 1294.894531 617.136719 1286.730469 631.796875 1290.398438 C 642.792969 1293.0625 648.292969 1300.890625 649.957031 1313.054688 C 653.789062 1339.542969 645.960938 1367.03125 656.621094 1393.019531 C 659.289062 1399.351562 653.289062 1400.015625 648.792969 1400.183594 C 639.128906 1400.183594 629.464844 1400.183594 615.804688 1400.183594 Z M 615.804688 1400.183594 " fill-opacity="1" fill-rule="nonzero"/><path fill="#84c021" d="M 952.171875 1400.183594 C 939.011719 1399.183594 927.847656 1404.683594 918.851562 1393.519531 C 911.1875 1383.855469 907.691406 1395.683594 903.023438 1398.019531 C 887.863281 1405.515625 873.535156 1403.683594 860.707031 1394.1875 C 848.878906 1385.355469 845.714844 1372.027344 848.378906 1357.867188 C 851.210938 1343.375 861.042969 1334.710938 875.203125 1330.878906 C 883.867188 1328.546875 891.53125 1330.878906 898.195312 1336.542969 C 901.859375 1339.710938 903.191406 1344.207031 901.691406 1348.707031 C 900.191406 1353.371094 896.359375 1352.203125 892.363281 1351.703125 C 882.367188 1350.539062 876.535156 1354.703125 876.035156 1365.199219 C 875.703125 1376.027344 882.03125 1382.359375 891.363281 1384.355469 C 900.691406 1386.355469 908.523438 1379.691406 910.355469 1371.863281 C 915.1875 1351.039062 912.023438 1330.378906 903.191406 1310.886719 C 901.191406 1306.390625 896.527344 1302.226562 890.695312 1302.226562 C 884.03125 1302.226562 882.367188 1306.890625 882.699219 1313.054688 C 883.199219 1325.382812 873.535156 1320.71875 868.371094 1320.050781 C 858.042969 1318.71875 853.378906 1311.554688 853.710938 1300.890625 C 853.878906 1294.0625 855.210938 1289.0625 863.539062 1289.230469 C 879.203125 1289.398438 895.027344 1288.230469 910.6875 1289.730469 C 925.683594 1291.0625 931.015625 1302.890625 934.179688 1316.050781 C 940.675781 1342.875 941.011719 1370.695312 952.171875 1400.183594 Z M 952.171875 1400.183594 " fill-opacity="1" fill-rule="nonzero"/><path fill="#84c021" d="M 1288.875 1399.683594 C 1274.378906 1399.683594 1262.550781 1399.683594 1248.722656 1399.683594 C 1258.886719 1377.027344 1255.054688 1354.035156 1255.386719 1331.378906 C 1255.554688 1319.050781 1251.722656 1307.554688 1237.394531 1308.222656 C 1225.566406 1308.722656 1219.234375 1318.050781 1219.902344 1330.378906 C 1221.234375 1353.203125 1215.570312 1376.359375 1224.898438 1398.351562 C 1214.070312 1402.683594 1202.242188 1403.183594 1193.578125 1399.515625 C 1180.082031 1393.851562 1194.578125 1382.523438 1192.578125 1373.027344 C 1188.582031 1352.039062 1196.578125 1330.046875 1187.582031 1309.054688 C 1185.25 1303.722656 1212.738281 1288.730469 1218.234375 1293.894531 C 1225.234375 1300.390625 1228.066406 1295.894531 1233.230469 1293.5625 C 1260.71875 1281.066406 1277.378906 1291.5625 1280.878906 1322.050781 C 1283.875 1347.039062 1277.046875 1372.863281 1288.875 1399.683594 Z M 1288.875 1399.683594 " fill-opacity="1" fill-rule="nonzero"/><path fill="#84c021" d="M 833.386719 1397.683594 C 822.890625 1402.347656 810.894531 1402.683594 802.230469 1399.183594 C 789.070312 1393.6875 803.0625 1382.191406 801.398438 1372.863281 C 798.898438 1359.035156 800.398438 1344.539062 800.898438 1330.214844 C 801.230469 1318.21875 797.234375 1307.722656 784.90625 1307.554688 C 773.410156 1307.390625 766.078125 1317.886719 766.078125 1329.046875 C 765.914062 1352.039062 761.746094 1375.359375 771.242188 1397.183594 C 765.078125 1401.851562 758.75 1399.683594 752.917969 1400.183594 C 739.589844 1401.351562 731.425781 1402.183594 736.421875 1382.023438 C 741.421875 1362.199219 738.257812 1340.210938 737.257812 1319.382812 C 736.421875 1303.222656 750.085938 1288.730469 764.578125 1295.0625 C 772.078125 1298.394531 775.242188 1295.394531 780.238281 1293.394531 C 808.730469 1281.898438 827.554688 1294.226562 828.722656 1324.550781 C 829.886719 1349.039062 824.890625 1373.863281 833.386719 1397.683594 Z M 833.386719 1397.683594 " fill-opacity="1" fill-rule="nonzero"/><path fill="#84c021" d="M 472.695312 1289.898438 C 478.359375 1327.878906 467.695312 1363.867188 480.691406 1399.015625 C 469.527344 1400.515625 458.199219 1403.847656 449.703125 1397.183594 C 442.207031 1391.1875 438.207031 1395.019531 432.210938 1397.683594 C 405.886719 1409.511719 389.058594 1398.519531 387.226562 1369.53125 C 385.894531 1349.703125 389.726562 1330.214844 382.394531 1309.886719 C 376.5625 1293.894531 397.054688 1298.058594 405.054688 1293.726562 C 414.550781 1288.730469 411.71875 1300.058594 411.882812 1304.722656 C 412.382812 1323.382812 411.71875 1342.207031 412.382812 1360.867188 C 412.71875 1371.695312 415.050781 1382.359375 429.710938 1381.691406 C 443.203125 1381.023438 447.535156 1372.695312 446.703125 1360.535156 C 445.539062 1344.207031 447.035156 1328.214844 444.703125 1311.722656 C 441.707031 1291.0625 463.863281 1300.226562 472.695312 1289.898438 Z M 472.695312 1289.898438 " fill-opacity="1" fill-rule="nonzero"/><path fill="#1ea5ef" d="M 1321.863281 249 C 1328.527344 248.5 1335.023438 249.167969 1341.519531 245.503906 C 1346.019531 243.003906 1352.015625 242.335938 1353.683594 250 C 1360.011719 278.488281 1382.835938 291.984375 1404.828125 306.476562 C 1412.324219 311.472656 1426.652344 312.472656 1423.65625 324.800781 C 1420.15625 338.628906 1408.828125 336.796875 1396.5 333.464844 C 1383.835938 329.964844 1370.007812 333.632812 1356.679688 328.800781 C 1348.519531 325.96875 1342.019531 322.46875 1337.1875 315.472656 C 1322.527344 339.796875 1307.035156 345.292969 1291.039062 332.132812 C 1283.875 326.300781 1279.210938 320.804688 1288.707031 312.472656 C 1302.703125 299.980469 1298.039062 290.984375 1282.375 284.820312 C 1270.714844 280.320312 1262.882812 270.824219 1255.054688 261.996094 C 1247.390625 253.5 1248.222656 245.003906 1262.882812 245.167969 C 1278.710938 245.335938 1293.707031 244.835938 1308.535156 236.671875 C 1318.363281 231.339844 1323.695312 238.339844 1322.527344 249.167969 C 1309.367188 246.835938 1298.371094 255.832031 1285.707031 256.496094 C 1281.042969 256.832031 1276.046875 257.996094 1276.210938 263.496094 C 1276.210938 267.328125 1280.042969 269.324219 1283.710938 270.824219 C 1289.875 273.324219 1295.703125 277.320312 1302.035156 279.15625 C 1323.695312 285.652344 1324.195312 286.816406 1308.367188 305.476562 C 1304.035156 310.640625 1297.871094 314.640625 1300.371094 322.46875 C 1300.871094 323.800781 1304.203125 325.136719 1306.035156 324.96875 C 1313.363281 324.300781 1317.195312 320.304688 1319.863281 312.808594 C 1325.527344 296.3125 1334.691406 297.648438 1346.519531 308.308594 C 1358.179688 318.804688 1372.34375 323.96875 1389.835938 318.136719 C 1373.839844 294.648438 1354.515625 277.488281 1332.691406 263.496094 C 1326.191406 259.996094 1320.527344 257.332031 1321.863281 249 Z M 1321.863281 249 " fill-opacity="1" fill-rule="nonzero"/><path fill="#84c021" d="M 1098.28125 1309.222656 C 1098.28125 1318.71875 1097.617188 1328.378906 1098.449219 1337.710938 C 1099.613281 1351.871094 1106.113281 1363.03125 1118.941406 1370.363281 C 1134.601562 1379.191406 1146.597656 1374.359375 1154.425781 1359.867188 C 1161.925781 1345.875 1155.425781 1323.550781 1143.765625 1317.886719 C 1138.433594 1315.386719 1132.433594 1314.71875 1129.769531 1319.882812 C 1123.773438 1331.710938 1117.441406 1328.546875 1111.609375 1320.882812 C 1104.78125 1311.886719 1105.113281 1301.890625 1114.109375 1294.894531 C 1125.9375 1285.566406 1139.097656 1286.066406 1151.09375 1295.726562 C 1178.25 1317.550781 1180.417969 1366.03125 1155.261719 1390.355469 C 1143.597656 1401.683594 1128.9375 1405.679688 1113.777344 1399.851562 C 1094.949219 1392.519531 1084.121094 1377.359375 1081.457031 1357.367188 C 1078.625 1339.875 1083.621094 1323.714844 1098.28125 1309.222656 Z M 1098.28125 1309.222656 " fill-opacity="1" fill-rule="nonzero"/><path fill="#1ea5ef" d="M 1056.632812 457.414062 C 1051.300781 465.742188 1050.800781 475.40625 1049.46875 485.066406 C 1048.300781 493.730469 1043.304688 502.394531 1057.796875 505.226562 C 1063.796875 506.390625 1063.460938 514.890625 1061.296875 518.886719 C 1043.96875 550.207031 1023.3125 577.863281 986.324219 589.191406 C 978.996094 591.355469 974.496094 590.855469 971 586.027344 C 966.667969 579.863281 967.5 572.699219 973.996094 568.199219 C 990.492188 556.871094 985.492188 548.707031 971.164062 540.542969 C 963.335938 536.046875 957.503906 529.214844 954.003906 520.386719 C 950.507812 511.390625 943.675781 500.394531 951.007812 493.230469 C 957.835938 486.566406 964.835938 497.894531 971.5 501.394531 C 996.320312 514.390625 1005.484375 511.058594 1015.480469 484.566406 C 1020.480469 471.242188 1025.3125 458.078125 1038.472656 449.75 C 1048.96875 443.253906 1053.464844 447.085938 1056.632812 457.414062 Z M 1035.808594 467.742188 C 1028.976562 483.070312 1026.644531 501.894531 1017.8125 513.890625 C 1006.152344 530.050781 983.492188 514.890625 966 515.722656 C 966.667969 540.542969 1024.8125 536.546875 990.992188 577.03125 C 1007.652344 574.695312 1006.816406 560.203125 1015.648438 554.871094 C 1031.640625 545.210938 1050.800781 536.546875 1034.140625 512.222656 C 1032.640625 510.058594 1034.808594 505.058594 1036.140625 501.5625 C 1040.136719 490.566406 1039.304688 479.570312 1035.808594 467.742188 Z M 1035.808594 467.742188 " fill-opacity="1" fill-rule="nonzero"/><path fill="#1ea5ef" d="M 1166.089844 501.726562 C 1156.757812 503.394531 1150.261719 497.5625 1146.261719 489.066406 C 1141.765625 479.570312 1151.09375 477.738281 1156.257812 474.90625 C 1182.414062 460.078125 1174.253906 435.421875 1167.589844 417.097656 C 1159.257812 394.105469 1175.085938 379.945312 1179.082031 361.953125 C 1180.417969 355.957031 1188.914062 357.789062 1191.914062 362.453125 C 1200.410156 375.613281 1214.070312 381.445312 1226.398438 389.609375 C 1231.230469 392.773438 1235.894531 397.605469 1235.894531 404.101562 C 1235.726562 415.597656 1239.394531 422.09375 1252.054688 423.425781 C 1258.550781 424.09375 1264.550781 428.757812 1260.050781 437.753906 C 1242.058594 473.238281 1206.40625 484.734375 1174.253906 501.226562 C 1172.253906 502.0625 1169.753906 501.5625 1166.089844 501.726562 Z M 1209.40625 472.238281 C 1220.734375 472.90625 1238.894531 454.914062 1232.394531 447.25 C 1221.402344 434.257812 1225.566406 420.761719 1224.566406 407.265625 C 1223.398438 392.605469 1210.570312 390.609375 1201.410156 385.777344 C 1190.414062 380.113281 1192.078125 394.105469 1186.582031 397.769531 C 1178.25 403.269531 1182.582031 412.097656 1181.25 419.59375 C 1178.25 436.753906 1198.578125 457.246094 1174.253906 471.574219 C 1169.421875 474.40625 1159.589844 478.738281 1166.421875 485.902344 C 1171.921875 491.730469 1181.417969 488.566406 1185.25 481.070312 C 1190.578125 470.90625 1198.742188 470.90625 1209.40625 472.238281 Z M 1209.40625 472.238281 " fill-opacity="1" fill-rule="nonzero"/><path fill="#1ea5ef" d="M 856.710938 357.789062 C 848.878906 358.621094 838.882812 361.453125 836.050781 346.960938 C 835.050781 342.128906 828.554688 343.792969 824.222656 343.128906 C 804.398438 340.128906 800.066406 329.464844 811.726562 312.472656 C 817.390625 304.3125 827.554688 297.980469 819.390625 285.484375 C 816.390625 280.988281 820.390625 278.320312 825.222656 275.988281 C 843.714844 266.992188 861.042969 253.164062 883.699219 264.992188 C 886.699219 266.492188 891.195312 265.828125 894.863281 265.492188 C 929.183594 261.660156 929.015625 271.992188 918.6875 302.144531 C 904.859375 342.128906 889.363281 356.121094 856.710938 357.789062 Z M 834.21875 283.152344 C 841.214844 284.484375 843.382812 285.320312 845.546875 285.152344 C 854.042969 284.652344 861.042969 286.816406 861.542969 296.480469 C 862.042969 307.476562 853.210938 306.476562 845.714844 307.308594 C 839.882812 307.976562 833.886719 309.476562 828.722656 312.140625 C 822.722656 315.140625 816.726562 320.46875 820.058594 327.96875 C 822.554688 333.796875 828.722656 334.964844 835.550781 332.796875 C 845.878906 329.464844 854.878906 331.632812 860.207031 342.128906 C 862.207031 345.960938 864.707031 347.460938 869.039062 346.625 C 893.695312 342.628906 897.359375 320.804688 906.023438 303.144531 C 913.519531 287.984375 897.195312 291.816406 893.027344 286.484375 C 875.371094 264.492188 858.042969 270.824219 834.21875 283.152344 Z M 834.21875 283.152344 " fill-opacity="1" fill-rule="nonzero"/><path fill="#1ea5ef" d="M 1036.140625 293.480469 C 1025.3125 285.484375 1015.648438 287.816406 1004.820312 289.316406 C 976.996094 292.980469 990.15625 303.144531 999.488281 313.140625 C 1018.3125 333.464844 1017.980469 335.964844 993.488281 349.625 C 991.492188 350.792969 989.492188 351.625 987.492188 352.789062 C 980.996094 356.121094 977.828125 361.953125 976.828125 368.949219 C 976.496094 372.117188 978.328125 375.28125 981.828125 374.949219 C 988.660156 374.449219 994.988281 371.78125 999.320312 366.117188 C 1004.984375 358.453125 1009.984375 345.625 1020.3125 350.125 C 1029.476562 354.125 1023.476562 367.617188 1024.3125 376.945312 C 1024.976562 383.277344 1024.476562 389.609375 1024.476562 396.105469 C 1031.640625 395.4375 1026.476562 381.445312 1035.140625 385.441406 C 1042.304688 388.609375 1036.472656 395.9375 1035.472656 401.269531 C 1033.140625 412.597656 1023.644531 416.929688 1013.480469 425.757812 C 1013.480469 407.101562 1013.480469 391.773438 1013.480469 377.445312 C 1004.152344 372.449219 1003.820312 380.777344 1000.152344 383.277344 C 989.992188 390.273438 978.828125 392.441406 970.164062 382.609375 C 961.835938 373.113281 962.667969 362.621094 972 352.457031 C 997.820312 324.46875 997.15625 324.636719 970.332031 298.148438 C 964.5 292.316406 950.171875 288.984375 957.335938 275.988281 C 964.167969 263.660156 973.664062 273.65625 980.996094 275.988281 C 995.988281 280.652344 1012.480469 269.824219 1026.644531 280.988281 C 1029.808594 283.652344 1034.640625 284.652344 1036.140625 293.480469 Z M 1036.140625 293.480469 " fill-opacity="1" fill-rule="nonzero"/><path fill="#84c021" d="M 989.160156 1249.914062 C 1001.652344 1265.574219 982.828125 1293.230469 1015.980469 1294.726562 C 979.164062 1313.21875 999.652344 1343.039062 995.824219 1366.863281 C 993.824219 1379.527344 1001.820312 1387.855469 1018.480469 1384.691406 C 1010.148438 1402.015625 997.488281 1403.847656 983.828125 1401.351562 C 969.332031 1398.683594 968.832031 1386.355469 968.332031 1375.027344 C 967.832031 1357.035156 971.664062 1338.210938 967.167969 1321.382812 C 961.835938 1301.890625 960.503906 1287.898438 978.996094 1275.234375 C 984.492188 1271.570312 985.160156 1260.742188 989.160156 1249.914062 Z M 989.160156 1249.914062 " fill-opacity="1" fill-rule="nonzero"/><path fill="#84c021" d="M 705.269531 1288.5625 C 711.765625 1327.546875 700.605469 1363.699219 713.765625 1398.019531 C 712.101562 1398.851562 710.765625 1400.015625 709.433594 1400.015625 C 699.105469 1399.851562 686.441406 1403.015625 678.78125 1398.351562 C 670.28125 1393.1875 680.777344 1381.691406 679.613281 1372.195312 C 676.945312 1351.703125 679.613281 1330.878906 677.28125 1309.886719 C 675.449219 1293.0625 696.605469 1300.558594 705.269531 1288.5625 Z M 705.269531 1288.5625 " fill-opacity="1" fill-rule="nonzero"/><path fill="#84c021" d="M 1067.292969 1399.683594 C 1053.132812 1399.683594 1041.304688 1399.683594 1029.144531 1399.683594 C 1037.472656 1375.195312 1033.308594 1350.703125 1033.640625 1326.714844 C 1033.972656 1301.390625 1033.140625 1301.390625 1060.296875 1291.730469 C 1065.796875 1327.214844 1055.800781 1363.367188 1067.292969 1399.683594 Z M 1067.292969 1399.683594 " fill-opacity="1" fill-rule="nonzero"/><path fill="#1ea5ef" d="M 659.621094 578.195312 C 662.785156 560.371094 668.785156 545.710938 691.441406 549.875 C 698.105469 551.039062 708.769531 545.542969 710.433594 555.371094 C 711.765625 563.367188 708.601562 574.695312 700.269531 578.863281 C 678.613281 589.359375 663.617188 605.351562 653.957031 626.84375 C 652.289062 630.507812 649.457031 633.171875 645.292969 631.507812 C 643.625 630.839844 641.460938 627.507812 641.960938 626.675781 C 649.789062 611.183594 648.957031 593.6875 654.289062 577.695312 C 654.457031 577.195312 657.953125 577.863281 659.953125 577.863281 C 671.617188 596.855469 678.945312 578.363281 687.441406 574.199219 C 690.941406 572.53125 697.105469 567.199219 691.273438 562.203125 C 687.441406 558.871094 681.277344 559.371094 677.28125 563.535156 C 671.949219 569.03125 669.617188 578.027344 659.621094 578.195312 Z M 659.621094 578.195312 " fill-opacity="1" fill-rule="nonzero"/><path fill="#1ea5ef" d="M 876.203125 487.898438 C 876.035156 485.734375 874.871094 482.570312 875.867188 481.402344 C 890.363281 464.078125 890.53125 451.582031 871.871094 438.421875 C 852.378906 424.761719 854.210938 406.269531 852.378906 385.109375 C 859.542969 387.941406 866.539062 389.273438 865.539062 394.605469 C 861.542969 416.097656 874.371094 426.425781 888.863281 438.585938 C 904.691406 451.914062 895.859375 474.074219 901.527344 491.730469 C 903.191406 497.0625 896.527344 498.0625 891.863281 496.0625 C 886.363281 493.730469 881.199219 490.566406 875.867188 487.898438 C 875.871094 487.566406 876.203125 487.898438 876.203125 487.898438 Z M 876.203125 487.898438 " fill-opacity="1" fill-rule="nonzero"/><path fill="#1ea5ef" d="M 613.136719 753.621094 C 617.136719 734.128906 595.8125 727.300781 593.144531 710.972656 C 591.480469 701.144531 591.980469 693.480469 598.476562 686.484375 C 603.140625 681.484375 612.640625 680.320312 612.804688 686.648438 C 612.804688 708.808594 634.296875 730.296875 613.136719 753.621094 Z M 613.136719 753.621094 " fill-opacity="1" fill-rule="nonzero"/><path fill="#1ea5ef" d="M 1045.46875 374.113281 C 1044.96875 370.117188 1043.304688 366.617188 1044.46875 364.785156 C 1056.964844 344.628906 1051.132812 328.632812 1034.140625 314.472656 C 1029.476562 310.640625 1030.476562 304.476562 1034.308594 300.480469 C 1038.304688 296.3125 1042.636719 298.8125 1044.804688 303.3125 C 1049.300781 312.308594 1068.628906 307.808594 1065.296875 319.136719 C 1059.796875 337.128906 1066.960938 360.121094 1045.46875 374.113281 Z M 1045.46875 374.113281 " fill-opacity="1" fill-rule="nonzero"/><path fill="#84c021" d="M 694.273438 1250.246094 C 703.269531 1251.246094 708.269531 1255.910156 708.601562 1264.40625 C 708.933594 1271.902344 704.4375 1277.570312 697.273438 1278.566406 C 688.777344 1279.734375 683.109375 1273.738281 681.945312 1266.074219 C 680.777344 1257.242188 687.441406 1253.246094 694.273438 1250.246094 Z M 694.273438 1250.246094 " fill-opacity="1" fill-rule="nonzero"/><path fill="#1ea5ef" d="M 641.128906 688.148438 C 654.289062 685.984375 668.285156 686.148438 662.785156 667.65625 C 662.453125 666.492188 664.785156 663.160156 665.785156 663.328125 C 668.449219 663.660156 671.78125 664.324219 673.28125 666.160156 C 678.113281 672.324219 672.949219 702.476562 666.117188 705.640625 C 651.125 712.640625 647.292969 701.144531 641.128906 688.148438 Z M 641.128906 688.148438 " fill-opacity="1" fill-rule="nonzero"/><path fill="#84c021" d="M 1050.300781 1278.902344 C 1042.96875 1278.066406 1036.472656 1273.238281 1035.308594 1265.738281 C 1034.140625 1257.410156 1041.472656 1252.078125 1048.800781 1251.078125 C 1055.632812 1250.078125 1061.464844 1253.746094 1061.964844 1262.40625 C 1062.296875 1270.738281 1060.296875 1277.070312 1050.300781 1278.902344 Z M 1050.300781 1278.902344 " fill-opacity="1" fill-rule="nonzero"/><path fill="#1ea5ef" d="M 826.222656 482.902344 C 830.054688 474.90625 833.886719 467.074219 837.71875 459.078125 C 840.382812 453.414062 845.382812 452.25 850.710938 453.25 C 853.210938 453.746094 856.710938 455.582031 857.542969 457.746094 C 860.875 466.074219 852.378906 464.078125 849.210938 466.910156 C 842.214844 472.90625 840.050781 483.902344 829.386719 486.402344 C 828.222656 485.234375 827.222656 484.070312 826.222656 482.902344 Z M 826.222656 482.902344 " fill-opacity="1" fill-rule="nonzero"/><path fill="#1ea5ef" d="M 870.371094 465.578125 C 875.371094 467.410156 875.703125 470.074219 874.871094 473.074219 C 874.203125 475.90625 871.703125 475.90625 870.203125 474.738281 C 868.707031 473.574219 867.539062 471.242188 867.707031 469.40625 C 867.871094 467.574219 868.871094 464.910156 870.371094 465.578125 Z M 870.371094 465.578125 " fill-opacity="1" fill-rule="nonzero"/><path fill="#fdfefd" d="M 689.773438 983.027344 C 703.601562 955.371094 725.761719 938.710938 747.085938 920.386719 C 746.585938 934.546875 740.421875 947.707031 753.417969 959.203125 C 758.75 963.867188 754.917969 969.863281 748.417969 972.863281 C 730.59375 981.191406 712.265625 984.859375 689.773438 983.027344 Z M 689.773438 983.027344 " fill-opacity="1" fill-rule="nonzero"/><path fill="#fdfefd" d="M 624.132812 404.101562 C 623.300781 410.433594 620.136719 413.429688 615.304688 413.265625 C 608.808594 413.097656 603.640625 408.765625 603.308594 402.769531 C 602.976562 396.9375 609.308594 398.105469 613.304688 398.105469 C 618.46875 397.9375 623.800781 398.105469 624.132812 404.101562 Z M 624.132812 404.101562 " fill-opacity="1" fill-rule="nonzero"/><path fill="#fdfefd" d="M 853.210938 789.605469 C 851.378906 799.601562 850.046875 806.101562 843.382812 809.433594 C 842.546875 809.929688 838.882812 807.597656 838.550781 806.265625 C 836.882812 796.769531 843.214844 793.4375 853.210938 789.605469 Z M 853.210938 789.605469 " fill-opacity="1" fill-rule="nonzero"/><path fill="#fdfefd" d="M 923.351562 656.496094 C 927.847656 657.828125 933.847656 657.328125 935.011719 663.660156 C 935.347656 665.160156 933.679688 667.992188 932.179688 668.492188 C 925.515625 671.15625 921.519531 667.160156 918.351562 661.828125 C 920.019531 660.160156 921.683594 658.328125 923.351562 656.496094 Z M 923.351562 656.496094 " fill-opacity="1" fill-rule="nonzero"/><path fill="#fdfefd" d="M 889.363281 834.421875 C 889.863281 833.421875 890.53125 832.421875 891.03125 831.421875 C 893.863281 833.921875 891.695312 834.253906 889.695312 834.589844 C 889.695312 834.589844 889.363281 834.421875 889.363281 834.421875 Z M 889.363281 834.421875 " fill-opacity="1" fill-rule="nonzero"/><path fill="#fdfefd" d="M 803.0625 1020.84375 L 801.566406 1021.507812 L 801.566406 1020.011719 Z M 803.0625 1020.84375 " fill-opacity="1" fill-rule="nonzero"/><path fill="#fdfefd" d="M 330.75 480.402344 C 330.582031 480.902344 330.25 481.238281 330.082031 481.734375 C 329.417969 481.238281 328.75 480.738281 328.082031 480.238281 C 328.582031 479.738281 329.082031 479.402344 329.417969 478.902344 C 329.914062 479.402344 330.25 479.902344 330.75 480.402344 Z M 330.75 480.402344 " fill-opacity="1" fill-rule="nonzero"/><path fill="#1ea5ef" d="M 592.148438 883.902344 C 592.480469 880.234375 593.480469 876.570312 593.144531 872.90625 C 592.148438 865.410156 584.816406 856.410156 595.144531 851.082031 C 607.640625 844.417969 604.308594 857.746094 607.808594 862.578125 C 610.140625 865.90625 612.972656 862.242188 615.472656 861.910156 C 624.46875 860.910156 627.300781 866.40625 627.632812 873.90625 C 628.132812 882.902344 622.632812 885.234375 614.804688 884.898438 C 607.472656 884.566406 599.976562 884.398438 592.644531 884.234375 C 592.480469 884.234375 592.148438 883.902344 592.148438 883.902344 Z M 592.148438 883.902344 " fill-opacity="1" fill-rule="nonzero"/><path fill="#1ea5ef" d="M 806.394531 737.460938 C 808.0625 737.296875 809.726562 736.960938 811.394531 736.796875 C 810.894531 738.296875 810.394531 739.960938 810.0625 741.460938 C 808.730469 740.128906 807.5625 738.792969 806.394531 737.460938 Z M 806.394531 737.460938 " fill-opacity="1" fill-rule="nonzero"/></svg>