<?xml version="1.0" encoding="utf-8"?>
<!-- Generator: Adobe Illustrator 27.0.0, SVG Export Plug-In . SVG Version: 6.00 Build 0)  -->
<svg version="1.1" id="Layer_1" xmlns="http://www.w3.org/2000/svg" xmlns:xlink="http://www.w3.org/1999/xlink" x="0px" y="0px"
	 viewBox="0 0 1920 1080" style="enable-background:new 0 0 1920 1080;" xml:space="preserve">
<style type="text/css">
	.st0{fill:#1EA5EF;}
	.st1{fill:#84C021;}
	.st2{fill:#FDFEFD;}
</style>
<g>
	<path class="st0" d="M964.1,477.1c-0.2-2.6-0.5-5.3-0.6-7.9c-0.4-7.1,3.9-18.7-11.3-8.9c-7.3,4.7-11-2-11.8-9.5
		c13.1-0.5,25.6-0.8,17.7-20.4c-1.7-4.2,7.6-6.9,12.4-8.1c7.6-2,5.9,6,8.5,9.8c4.9,0.7,6.3-9.3,11.6-4.9c3.3,2.7,0.2,7.6-1.5,11.2
		c-4,8.3,1.7,9.3,6.8,7.2c15.7-6.5,13,3.3,11.4,14c-5.2-5.2-10.6-5.1-16.1-1.6c-4.7,3-11.1,4.3-10.6,13c9.4-1.6,16.6-10.1,27.4-6.1
		c5.3,1.9,5.2-5.7,5.3-9.6c0.3-14.8,0.8-15.2,14.2-8.9c1.9,3.1,4.3,5.5,8.3,4c0.9-0.3,1.9-2.1,1.7-2.9c-0.7-3.8-4.2-3.5-7-4.3
		c2.8-6.4,2.7-11.6-3.9-16.4c-5.2-3.7-11.3-8.1-8-16.6c1-2.6-0.5-4.3-3.5-3.8c-7.5,1.3-9.7-5-14.8-10.4c-0.7,10-5,12.4-13.6,8.6
		c-3.3-1.5-9.1-1.5-11.8,0.5c-10.4,7.6-12.8-3.3-17.7-7.3c-3-2.4-3.5-7,1.3-8.6c3.9-1.3,9.8-3.2,10.5,3.5c0.5,4.8,0.9,9.1,6.3,7.1
		c4.5-1.7,11.7,0.4,13.3-6.8c1.1-4.9-1-7.7-6.3-7.9c-3.3-0.1-3.6-2.3-2.3-4.6c1.5-2.6,3.9-4.1,6.7-1.9c4.8,3.9,8.3,9.1,11.4,14.8
		c5.4-12.4,1.1-31.6-8-37.5c-2.1-1.4-3.1,0.6-4.6,0.9c-14.7,3.1-23.6-1.2-31.8-13.7c-2-3-4.1-4.4-0.9-7.4c2.6-2.4,5.6-1.7,6.8,0.8
		c3.2,6.7,8.1,2.6,12.4,2.6c0.6,0.7,1.3,1.4,1.9,2c-0.4,3-7.1,5.6-0.1,9.3c3.8,2.1,7.6,2.9,9-0.8c3.9-9.9,12.2-6.7,19.2-7.6
		l-0.2-0.2c-5.1,10.4-3.8,19.2,4.5,28c5.2,5.5,1.9,13.9,2.2,21c0.3,6.3,1.4,10.1,8.5,5.4c3.7-2.5,7.6-5,12-0.6c4.6,4.5,1.1,8.4-1,12
		c-3.2,5.6-3.2,9.5,2.6,13.6c4.1,2.9,4.7,8.5,6.7,13c1.6,3.4,1.7,9.2,9.1,5.6c4-2,19,15.5,18,20.2c-1.4,6.4-5.6-0.5-6.8,1
		c-7.8,9.5-16.2,3.5-28.3-0.9c8.5,10.5,5.8,20.6,12.4,28.8c4.8,6,0,13.1-4.4,18.8c-2.3,3.1-6.4,7.1-1.1,10c4.3,2.3,5.5-2.1,6.6-5.9
		c1.1-3.9,5.1-5.5,8.7-4.8c10.5,1.9,14-5.8,18.5-12.5c1.2-1.8,3.6-4.6,1.4-5.7c-10.1-4.8-2.5-12-3.4-17.9c1.5,2.9,0.6,9.7,4.6,7.8
		c13.4-6.4,24.1,5.6,36.5,3.8c3-0.4,6.9,1.1,8.4-2.5c1.8-4.2-2.3-5-4.9-6.5c-4-2.3-3.6-6.1-2.2-9.5c1.8-4.3,3.1-8.6,0.5-12.9
		c-2.2-3.6,0.3-10.6-5.6-11c-5.2-0.4-3.4,6.9-5.9,9c-4.8,4.1-10.3,7-10.6,14.5c-0.1,2-3.7,3.9-5.3,1.8c-4.6-6.2-10.1,0-17.8-2.5
		c12-7.9,14.8-22.6,29.6-26c7.8-1.8,4.8-11.3,9.9-17.7c9.5,11,10.4,25,14.1,37.4c1.8,5.8,0.9,10.4,9,11.4c7.1,0.9,7.8,5.9,3.1,11.7
		c-9.4,11.5-23.5,14-34.3,8.9c-16.3-7.7-20.2,3.8-24.1,12.5c-3.9,8.5-9.3,12.9-17.4,14.9c-5.4,1.3-10,3.4-14.1,7.2
		c-4.8,4.4-9.7,1.1-13.3-1.6c-3.4-2.6-3.1-9.9-0.7-11c16.3-7.9,6.8-19.5,4.3-29.2c-1.7-6.6-5.9-12.9-8.7-20
		c-2.6,10.2-4.5,20.3-6.6,30.1c-2.9,12.7-5.9,24.6-12,36.2c-4,7.6-4.1,15.9,9.3,12.1c4.3-1.2,7.3,0.4,6.9,5.3
		c-0.5,5.7-0.2,13.4-6.7,14.6c-6.3,1.2-1.7-6.4-4-9.2c1.2-0.2,2.6-0.4,0.8-1.9c-0.3,0.6-0.7,1.2-1,1.8c-2.9-1-7.3,3.1-8.7-0.4
		c-5.3-13.4-16.4-7.4-25.4-8.4c-2-0.2-4.7-0.5-5.6,2.3c-0.9,2.8,1.3,3.9,2.9,5.5c3.3,3.2,7.1,5.2,11.6,6.1c2.7,0.6,7.2-1,7.5,3.6
		c0.2,3.4-3.1,5.3-5.7,7c-1.8,1.2-4.2,1.6-6.1,2.8c-2.9,1.8-10.1,0.8-6.9,6.9c2,3.7,6.9,8.4,12.4,4.4c11.3-8.2,20.4,0.5,30,3.6
		c4.3,1.4,8.2,8,12.9,3.3c3.7-3.7-2.1-8-2.9-12.2c-0.3-1.5-1.4-2.9-0.9-5.2c11,4.7,16.6,14.7,20.7,24.6c2.1,5.1-2.5,9.3-9.1,6.6
		c-7.9-3.2-15.8-6.6-23.7-9.7c-3.3-1.3-7.5-3.2-9.1,1.6c-1.6,4.7,0.7,7.9,6,7.9c6.5,0,9.7,2,5.9,8.9c-1.9,3.4-1.5,6.9,0.7,10.2
		c2.4,3.6,3.3,8.2,1.9,11.7c-4.3,11.3-6.3,23.1-9.2,34.7c-1.5,6.2-4.7,8-8.4,1.2c-2.4-4.3-4.8-8.7-6.4-13.3c-1-2.8-0.9-5.6,3.2-7.5
		c15.7-7.2,18.4-26.2,4-34.8c-6.8-4.1-9.4-7-7.4-14.2c0.9-3.2,0.7-6.3-2.6-8.3c-2-1.2-4.4-1.7-6.3,0c-3.5,3,0.2,5.8,0.6,8.6
		c3.5,20,3.6,20-3,29.7c8.6,1.4,21,2.8,12.7,14.5c-3.8,5.3-9.7,12.9-18.5,14.5c-7,1.2-12,4.5-8.3,13c1.3,3-0.1,5.3-2.5,6.9
		c-2.4,1.6-23.7-5.5-25.1-8.5c-3.1-6.4-7.1-7.4-12.7-2.8c-7.3,6-12,6.8-13.9-5c-1.5-9.8-8.2-12.1-16.8-6.4
		c-4.9,3.2-9.7,6.4-14.6,9.5c-14.9,9.4-29.2,18.3-26.2,40.4c1.1,8.1-0.5,17.7-3.8,26.4c-6.8,17.5,2.6,31.3,13.1,43.5
		c5.3,6.2,5.3,11.4,1.5,16.8c-4.2,5.8-10.6,4.4-15.7,1.2c-6-3.9-11.7-8.4-16.9-13.3c-12.7-11.7-26.3-15.7-42.8-7.8
		c-11.3,5.4-17.7,2.2-23-10.7c-2.5-6-6.7-3.1-10.1-2.3c-8.7,2.1-9.9-3.1-8-9c2.6-7.6,6.4-14.8,10.2-22c11.2-21.6,13.6-42.4-3.8-62.3
		c-5.8-6.7-6.3-15.8-9.6-23.6c-3-7-7.3-6.1-12.8-5.9c-5.5,0.3-9.3,0.6-9.8,7.7c-0.3,4.3-2,12.3-8.1,9.6c-8.1-3.5-19.7,4.9-24.9-7.7
		c-2.7-6.6-6.9-12.5-10.6-18.7c-1.7-2.8-2.2-8.4-7.1-5.7c-4.1,2.3-2.8,7.2-0.9,10.8c2.2,4.3,10.1,6,5.5,13.1
		c-5,7.9-10.4,16.6-18.6,20.2c-10.6,4.7-10.9-9.3-9.9-11.5c5.7-11.8-7.2-21.2-3-32.6c0.6-1.7-3.2-10.1-11.6-5.7
		c-7.1,3.7-13.4,0.3-12.6-9c0.7-8.6,3.1-17.2-10.4-17.3c-2.7,0-4.5-2.7-3.2-6.1c4.3-11,5.3-24.3,19.7-28.4c3-0.9,5.8-2.5,6.3-6.2
		c1.9-12.8,7.8-8.8,14.5-3.6c8.9,6.8,17.5,4.4,23.4-6.8c-3.9,0-8.1-1.2-10.9,0.2c-7.6,4-11.7-0.6-15.9-5.2
		c-5.2-5.7,0.3-8.6,3.5-12.1c1.5-1.7,3.1-3.5,0.6-5.7c-1.8-1.5-4.4-3-5.7-0.5c-5.6,10.7-19.9,6.3-25.5,16.2
		c-5.1-4.1-3.2-8.9-3.4-13.2c-0.3-5.2,0.2-10.2-7.7-9c-9.2,1.4-8.3-5.7-6.8-10.5c2.3-7.5,3.9-14.7,2.5-22.4
		c-0.9-5.2,1.9-6.8,6.8-7.7c9.8-1.7,9.5-6.6,3-12.5c-5.8-5.2-11-11-12.5-18.7c-1.3-6.9-0.5-13.7,9.8-8.8c1.2,0.6,2.8,1.2,3.9,0.9
		c8.1-2.1,17.2,18.2,24.5-1c3.4-9,12-15.8,6.5-28.2c-4.4-9.9,5.3-22.4,18.4-27.1c9.5-3.4,15.4-8.6,11.5-20.2
		c-4.2,0.8-8.4,2-12.7,2.3c-2.6,0.2-6.2,4.3-7.9-0.5c-1.1-3.2-1.7-7.9,2-9.8c8.1-4.2,10.9-13,17.3-18.7c6.4-5.7,12-9.8,21.5-6.8
		c9.5,3,18.1-5.4,30.4-3c-7.2-9.7-12.9-15.5-12.9-27.4c0-24.2,10.1-33.7,35.6-33.7c18.7,0,37.3,3.7,56,1.5c4.2-0.5,8-0.3,11.5,2.5
		c17.8,14.3,36.6,9.9,55.5,2.9c0.4-0.2,0.7-0.7,1.1-0.7c8.8-1.1,19.8-1,21.9-11.1c1.6-8.1-2.1-17.4-3.7-26.1
		c-2.3-12.3,5.1-25.7,16.2-28.8c4.8-1.3,7,2.6,7.9,5.6c1.9,6.8,6.5,10.4,12.2,13.5c4,2.2,7.4,5.6,7.3,10.6
		c-0.1,6.7,0.5,12.2,8.7,14.1c3.2,0.8,4,4.9,1.4,7.9c-9.1,10.2-16.9,22.5-33.2,21.5c-3.6-0.2-7.6-1.2-8.3,4c-0.6,4.4,2.4,6.4,6,7.8
		c8.2,3.3,15.4,9.6,25.1,9.1c2.1-0.1,4.9,0.7,6.3,2.2c13,13.9,25.1,0.4,37.5-0.2c-1.9,10.1-1.8,10.4-11.2,10.6
		c-7,0.2-9.7,5.2-14.2,8.5c-11.5,8.5-8.1,17.4-8.5,27.5c-0.2,4.6-6.3,6.8-11.7,3.6c-13.3-7.8-12-0.4-10.4,9.3
		c1.8,10.6,8.7,17.5,15.7,24.4c3.9,3.8,9,3.4,13.7-1c-5.4-3.2-11.2-5.8-15.7-9.7c-2.4-2.1-7.1-6.3-3.3-10c3.7-3.6,9.2-6,14.8-2.2
		c7,4.8-3.2,6.7-1.9,10.6c3.9,4.1,13.8-1.2,13.7,9.2c-0.1,7.9-11.1,14.4-20.4,11.2c-8.1-2.8-12.3-9.8-17.6-15.9
		c-4.9-5.7-12.5-9-6.6-18.3c0.6-1-0.9-3.3-1.3-5c-2.6-11.6,0.4-14.5,12.5-11.9c3.6,0.8,7.5,5.3,10.7,0.3c2.4-3.6-1-7.3-3.2-9.6
		c-7.9-8.5-8.7-16.6,2.4-25.5c-13.6-1.7-22.2-11.6-34.5-10.8c-3.5,0.2-8.3-0.2-7.6,5.1c0.7,5.1,4.7,2.4,7.4,1.6
		c4.1-1.2,6.9,1.1,6.7,4.3c-0.6,10.7,3,23-9.7,29.9c-1.2,0.6-2.3,1.5-3.3,2.3c-14.5,11.6-14.6,11.6-25.7-3.8c-2.3-3.2-3.6-5.5-8.2-2
		c-7,5.3-13.9,2.9-18.5-3.8c-5.5-8-10.1-16.7-15-25.1c-2.3-3.9,0.7-5.5,3.2-7.5c6.1-4.8,13.4-5.8,20.5-5c14.1,1.6,2.8,12,5.8,19.1
		c9.4-9.8,15.7-4,21.9,3.7c3.3,4.1,6.2,3.4,7-2.1c1-7.3-0.1-12.6-7.2-18.3c-15-12.1-30.5-13.4-47.8-8.1c-5.2,1.6-7.5-2-9.8-5.2
		c-5.3-7.4-12.4-9.1-21.2-9.2c-20.1-0.3-40.1-1.6-60.2-2.4c-6.5-0.2-10.9,3.4-13.4,9.1c-3.2,7.3,3.1,5.7,6.7,7.6
		c3.2,1.6,6.2,5.9,6.8,9.4c0.9,5.4-4.6,5.1-8.3,6.5c-4.1,1.5-9.2,3.6-8.1,9.1c0.7,3.9,5.5,1.5,8.1,2.7c4.1,2,12.9-6.5,12.6,5.3
		c-0.2,8.5-12.5,20.5-18.7,16.9c-13.5-7.8-25.4,6.4-38.6,0.6c-3.1-1.4-8.6,3.6-12.1,9.1c5.4,2.7,16.5,1.1,12.2,10.8
		c-4.4,9.8,4.1,26.2-14.5,29.3c-4.2,0.7-8.4,3.2-11.7,5.9c-6,5-6.2,11.3,1.2,14.6c5.6,2.5,9.8,4.6,9.2,11.2
		c-0.6,7-5.4,8.9-11.9,10.4c-11.2,2.6-13.1,14-17.6,22.5c-3.7,6.9-6.7,9-12.4,2.4c-2.4-2.8-5.4-5-9.2-5.1c-2.8-0.1-6.4-2.6-8.3,1.6
		c-1.4,3,1,4.9,2.8,6.9c8.8,9.1,20,18.1,1.7,29c-1.4,0.8-1.8,3.5,0.4,4.4c1.4,0.6,4.4,0.6,4.9-0.3c6.1-10.3,19.2-9,26.7-16.7
		c4.9-5.1,6.6-2.9,7.1,2.8c0.7,9.1-1.7,16.9-9.7,22.2c-4.4,2.9-8.8,5.7-13.8,8.8c5.5,5,11.6,9.2,18,8.5c13.8-1.5,13.1,5.1,9.8,14.3
		c-0.6,1.7-1.1,3.4-1.6,5.2c-1.4,4.8,1.7,5.3,5.2,5.1c3.2-0.1,7.1,0,4.7-5.1c-5.2-11.3-0.7-14.7,10.5-13.6c4.4,0.4,8-2.4,9.3-6.4
		c1-3.1-1.2-5.7-4.1-7.7c-7.4-5.3-5.6-23.8,3-27.6c5.8-2.6,11.3-3.3,18.8-2.4c21.1,2.7,36.9,17,56.9,21.1c5.8,1.2,6.5,6.7,9.4,10.9
		c5.3-2.7,6.1-8.1,8.7-12.2c3.3-5.3,8.6-8.3,14.9-7.1c7,1.2,6.6,6.1,4.3,11.3c-0.8,1.9-0.3,4,2.1,3.6c3.6-0.6,8.8,1,9.8-4.6
		c0.8-4.7,1.5-9.7,7.5-9.1c6.5,0.7,9.9,5.2,11.5,11.5c1,4,0.8,7.7,0.7,11.7c-0.1,4.5,0.7,9.8,6.9,11.6c5.4,1.5,10.1,1.1,13.4-3.3
		c3.7-4.9,10.1-8.9,9.2-15.7c-1.6-12.8,8.9-10.2,15.1-12.3c6.5-2.2,13.6-2.8,16.9,5.9c3.8,9.9-0.6,19.7-1,29.5
		c-0.2,3.8-4.6-0.1-6.4-2.5c-2.6-3.5-6.4-4.4-9.2-1.6c-2.9,3,0.6,5.1,2.7,7.5c6,6.8,11.5,13.8,7.8,24.1c-1.3,3.7-2.1,8.6,1.2,11.5
		c3.6,3.2,6.2-1.7,9.4-2.7c10.1-3,16.2-8.4,14.8-20.4c-0.8-6.5,3.7-8.1,8.4-3.6c4.5,4.3,10,6,15.7,7.2c10.8,2.4,20.2,5.2,16.9,20.1
		c-1.4,6.3,6.4,9,10.3,12.4c2.9,2.5,4.9-3.9,7.9-5.7c3.7-2.2,3.1-5,0.2-7.6c-3.7-3.3-7.5-6.5-10.9-10c-4.2-4.3-7.1-9.4,0.3-12.8
		c4.8-2.2,4.3-4.6,4.5-9.1c0.7-13.1,3.1-25.5-16.4-13.2c-3.9,2.5-6.7-0.2-5.8-5.3c0.5-3.4,1.8-7.7-3.5-8.6c-3.9-0.6-7.6,1.4-8.9,4.8
		c-3.5,9.4-12.7,10.5-19.7,14.9c-4.2,2.6-7.7,2.4-10.9-0.6c-3.1-3-4.5-7-2.3-11.1c4.9-9.1,4.2-18-1.7-26.1c-9-12.3-0.2-27.4-6.8-40
		c-1.4-2.6-1.4-5.9-1.8-9.5c5.4,11.9,25.9-1.7,27.7,17.2c-16.8-5.5-17.4-4.9-14,13.7c8.8-3.7,19.3-3.4,27-12.4
		c-4,12.5-3.6,21.3,11.9,21.4c6.3,0.1,2.4,7.9,6.7,10.8c4.9-3.3,10.1-7.1,16.9-4.5c-1.9,7.8-16.1,9-11.4,21.5c2.8-2.6,5-4.7,7.2-6.7
		c0.7,0.8,1.5,1.6,2.2,2.4c3.4,9.3,7.8,1.7,11.7,0.6c3.6-1.1,3.9-6.8,9.3-6.1c13.7,1.6,11-7.9,11.4-15.9c-4.5-0.6-5.3,2.7-7.5,4
		c-5.6,3.2-11.6,16.2-16-1.5C970.2,470.9,967.1,478,964.1,477.1z M831.6,579.6l0.2,0.2c-0.5,7.2-7.6,15.1,2.4,21.4
		c0.7,0.5,0.5,3.6-0.2,5.1c-8.1,16.6-4.9,30.2,10.3,41.3c6.5-5.6,7.3-14.2,10.3-21.5c3.2-7.9,5.6-15.7,12.2-22
		c13.8-13.2,14.7-21.6,5.8-38.7c-1.4-2.8-0.1-5.2,0.9-7.7c6.6-15.8-7.1-25.4-11.8-37.7c-1-2.7-3.9-2.3-5.8-1
		c-8.5,5.8-20.1,0.8-29.7,11.6c0.7-13.3,2.9-24.8-10.9-27.6c-9.7-1.9-19.7,7.4-29.3-0.6c-0.9,1.4-2,2.7-2.7,4.2
		c-2.1,4.8-3.6,9.6-1.4,15.1c11.2-6.2,22.9,4,33.6-2.8c2-1.3,5-3.1,7.3-0.3c2.2,2.6-0.2,5-1.2,7.4c-4.9,12.6-7,25.2-1.2,38.3
		c1.4,3.2,1.4,7.4-1.5,12.5c-1.9-3.7-3-5.5-3.8-7.5c-4.5-11.4-19.1-11.3-24.5-21.7c-16.7,5.6-25.6,2.7-19.2-17.3
		c0.3-0.9-1.9-2.6-1.6-3.5c3.7-9.9-11.1-11.9-9-19.5c4.1-14.6-5.1-16.5-15.1-18.2c-3.5-0.6-7.8-5.2-10.6,0.5
		c-2,4.2,0.6,7.5,3.8,10.5c16.4,15.7,16.3,15.8-4.5,24.6c-0.8,0.3-1.8,0.3-2.7,0.5c-2.3,0.4-5,1.1-3.9,3.9c0.7,1.7,3.1,3.2,5,4
		c2.9,1.2,4.9-1,7.1-2.7c4.8-3.7,10.2-4.1,14.7,0.1c5.1,4.7,0.5,9.2-1.4,13.4c-4.9,10.4-17,14.7-27.9,10.2c-2.7-1.1-5.1-1.9-7.7-0.5
		c-13.7,7.3-11.3-4.2-11.8-10.7c-0.3-4.2,2.6-8.2-1.3-12.5c-8.8-9.7-5.3-15.8,6.4-19.2c4.6-1.4,11.1-3.7,6-10
		c-4.4-5.5-3.9-9.9-1.8-15.9c2.8-7.8-3.4-9.7-9.3-11.7c-6.3-2.2-12.4-4.3-16.3,3.1c-1.6,3.1-4.6,8.1,4.1,7c7-0.9,8.6,4.9,5.7,9.8
		c-6.1,10-7,22-12.3,31.7c-6.4,11.7-3.8,25.3-11,36.9c-2.9,4.6-11.3,13.1-6.8,16.4c6.1,4.5,16,1.5,24.1-1.7c8-3.2,16.5-6.2,11.2,8.5
		c-1.1,2.9,1.7,4.9,2.3,7.3c2.7,11.1,14.6,18.7,15,28.6c0.4,10.4,4.8,7.2,9.3,6.4c7.3-1.4,11.2-6.6,13.5-13.6
		c3.7-11.4,12.9-13.3,21.8-5.2c2.9,2.6,6.5,4.7,10,6.5c2.8,1.5,8.6-1.3,8.5,3.9c0,4-1.9,8.3-7.4,10.1c-3.4,1.2-8.9,3.9-5.6,9.8
		c3.4,5.9,10.6,6.8,13.6,2.9c7.5-9.8,14.4-6.8,23.1-2.9c3.9,1.7,8.6,5.6,14.4,2c-1-2.8-1-6.8-3-8.4c-13.3-10.4-20.3-27.6-37.4-33.8
		c-3.4-1.2-7.7-3-5.3-7.5c2.7-5.1,4.6,0.7,7,1.3c4.2,1.1,9.4,2,12.6-1.3c3.5-3.7,1.9-8.4-1.2-12.2c-1.8-2.2-3.5-4.5-0.7-6.9
		c3.1-2.7,5.9-1.3,8.1,1.4c2.6,3.1,5.5,6.6,5,10.8c-0.9,7.1,2.8,13,3.8,19.6c0.7,4.2,1,8.9,6.7,7.7c4.7-1,5.4-5.6,4.8-9.9
		c-0.5-3.5-1.2-7.1-2.1-10.5C818.9,582.3,822.6,578.7,831.6,579.6z M902,566.6c-15.8,24.2-26.8,48-32.1,74.4
		c14.9-10.2,24.1-24.6,31.5-40.2c1-2.2,0.3-6.6,3.9-5.2c10.1,4.1,14.8-1.9,19.2-9c3.3-5.5,8.8-5.1,13-3c5,2.5,1.4,7.4,0.1,10.7
		c-1.7,4.5-4.6,8.5-7,12.7c-1,1.8-0.9,3.3,0.7,4.7c1,0.9,1.7,1,3.2,0.3c15.4-6.6,21.9-27.1,11.4-40.4c-3.4-4.4-4.9-7.5-2.2-11.5
		c7.5-11.2,0.2-13.8-8.7-15.7c-4.9-1.1-9.7-2.3-14.8-3.6c-1.6,9.3,5.6,12.5,9.8,17.3c6.4,7.3,4.2,13.2-4.2,14.5
		c-8.9,1.4-16.3,4.6-23,11.3C899.5,578.2,904.6,574.2,902,566.6z M889.5,262.2c3.4,1.3,6.4,3.4,7.4,2.7c7.1-5.2,14.4-5,23-4.9
		c7.9,0.2,18.1-12,14.7-15.1c-7.7-6.9-4.5-14.2-6.6-21c-2.9-9.3-18.1-14.7-24.3-8.4c-5.9,6-2.1,13.1-0.2,19.8
		C908.1,251.8,906.4,255,889.5,262.2z M770.1,652.8c15.2,1.9,16.4,11.9,16,23.3c-0.3,7.8,2,15,6,21.7c1.6,2.7,3.1,5.9,6.7,5.7
		c3.5-0.2,5.3-3,6.3-6.1c4.7-15.8,3.1-31.9,1.3-47.8c-0.5-4-5.7-11.6-10-6.9C788.9,651,779.6,649.4,770.1,652.8z M927.7,655.6
		c6.9-1.7,14.6-7.7,14.5,4.7c0,2.7,1.8,3.4,4.6,1.9c8.6-4.6,14.1-14.8,26.1-13.4c3.1,0.4,2.7-4.3,0.6-6.2c-2.3-2-5.5-3-8.1-4.7
		C939,620.4,935.1,622,927.7,655.6z M890.2,639.1c13.6,1.1,24.6-1.1,35.1-6c4-1.8,6.2-5.4,3-8.2c-7.8-6.9-4-14.9-3.8-23.3
		C911.8,612.5,898.5,622.5,890.2,639.1z M954,616.7c-2.8,9.7,5.9,10.3,11.7,11.4c6,1.1,11.5-5.7,11-9.4c-1.2-9.1-11.2-8.6-17.9-10.6
		C952,606.2,954.3,612.5,954,616.7z M960.5,593.4c-2.3,12.9,7.6,9.9,13,12.1c4,1.6,6.4-1.6,5.4-5.1c-1.9-7.4-4.3-15.9-13.3-16.7
		C957.7,582.9,961.5,590.8,960.5,593.4z M874.5,320.3c0.1-9.7,1.9-19.1-12.6-13.6c-2,0.8-4.4,0.1-6.6,0.4c-3.1,0.4-8.3-2.1-7.7,4
		c0.5,4.9,5,4.2,8.5,3.8C862.6,314.1,868.6,315,874.5,320.3z M1003.5,494.6c5.2-7.1,9.1-12.3,12.8-17.7c1.2-1.8,1.8-4.3,0.1-6.2
		c-2.1-2.3-4.2-0.2-5.9,0.7C1001.8,475.9,1000.6,483.3,1003.5,494.6z M689.6,622c1.9-0.2,12-16.4,11.2-18.1
		c-1.2-2.4-3.7-3.1-5.5-1.4c-4.5,4.3-7.9,9.6-9.7,15.7C684.9,620.7,686.8,622.3,689.6,622z M835.4,663.4c3.6-2.2,6.8-3.9,7-8.1
		c0.1-3.1-1.2-5.6-4.7-4.4c-3.2,1.1-8.1,1.5-8.1,5.6C829.6,658.8,833.3,661.1,835.4,663.4z M653.5,628.8
		c6.6-7.7,10.7-12.4,14.8-17.1C661.5,614.3,653.5,615.6,653.5,628.8z M896.7,301.1c-5.4,5.2-7,10.8-5,17.2c0.6,1.9,2.9,2.5,4.4,1.3
		c5.8-4.8,3.7-11,2.5-17C898.6,302.3,898.1,302.2,896.7,301.1z M719.8,636.2c0.4-3.4-1-4.8-4.4-4.5c-3.7,0.2-5.9,1.8-5.3,5.7
		c0.4,2.8,2.3,4.8,5.2,5C719.8,642.7,719.8,639.4,719.8,636.2z M850.8,291.6c-0.2-3.6-3.4-3.7-6.4-3.6c-2.4,0.1-6.2-0.7-6,2.8
		c0.2,3.6,3.2,6.2,7.2,6.3C848.4,297.2,850.3,295.4,850.8,291.6z M988.3,523c-6,2.2-9.8,4.2-8.7,10c0.2,0.8,2.3,2.2,2.9,1.9
		C986.4,532.9,987.2,529,988.3,523z M958.2,661.8l-0.8-0.5l0,0.9L958.2,661.8z M674.7,337.4c-0.3-0.3-0.5-0.6-0.8-0.9
		c-0.3,0.3-0.6,0.5-0.8,0.8c0.4,0.3,0.8,0.6,1.2,0.9C674.4,337.9,674.5,337.7,674.7,337.4z"/>
	<path class="st1" d="M660.7,888.2c9.9-6.7,5.8-13.4,2.9-19.5c-4.3-8.9-9.8-17.1-16.4-24.6c-7.8-9-7.1-22,0.5-27.6
		c6.7-4.9,12.6-4,17.1,3.1c1.4,2.1,0.5,4.6-1.7,5.8c-1.8,0.9-3.2,0-3.7-2.2c-1.5-7-5.4-6.2-9.5-2.4c-4.8,4.4-3.4,9.5,1.2,12.6
		c5.6,3.9,12.4,3.4,17.8-0.3c5.4-3.6,8.7-9.1,6.4-16.2c-3.1-9.8-10-15.3-20.2-14.3c-9.4,1-17.9,5.5-18.3,16.4
		c-0.7,18.9-0.1,37.8-0.5,56.7c-0.1,5.8,6.3,7.3,6.8,13.1c-11.7,0-23.1,0-38.3,0c13.6-8.4,13.3-19.3,12.1-29.7
		c-1.9-16.3,6.8-34.4-8.2-48.7c-2.8-2.6,1-5.7,3.1-7.9c14.7-15.2,43.8-19.5,62.6-9.6c12,6.3,18.1,15.8,16.3,29.6
		c-1.6,12.6-9.2,18.7-21.4,20.2c-2.5,0.3-4.9,2.1-7.4,3.2c0.8,1.2,1.1,2.3,1.7,2.5c5.9,2,17.8,12.8,20.4,19.2
		c3.2,8.1,7.8,14.9,15.3,20.8C687.5,888.2,675.5,888.2,660.7,888.2z"/>
	<path class="st1" d="M845.8,889.5c9.2-14.8,6.1-28.5,6-41.8c0-6.3-2.5-13.7-10.2-13.6c-8.5,0.1-10.5,7.8-10.5,14.7
		c0,13.2-2.6,26.8,4.5,40.1c-8.7,0.7-16.1,1.3-24.1-0.5c5.9-14.3,2.9-28.8,3.4-43c0.2-6-2.4-11.1-9-11.2c-6.4-0.1-9.8,4.8-9.7,10.8
		c0.2,14.5-2.4,29.3,2.9,44c-7.4,0-14.4,0-22,0c3-17.9,3-35.3,0.7-52.9c-1.6-12.1,11.6-5.9,15.5-11.6c5.6,7.6,9.9,0,14.6-1.3
		c9.8-2.8,18.3,8.4,23.9,6.2c7.9-3.1,14.8-8,23.6-5.8c6.6,1.6,9.9,6.3,10.9,13.6c2.3,15.9-2.4,32.4,4,48c1.6,3.8-2,4.2-4.7,4.3
		C859.8,889.5,854,889.5,845.8,889.5z"/>
	<path class="st1" d="M1047.7,889.5c-7.9-0.6-14.6,2.7-20-4c-4.6-5.8-6.7,1.3-9.5,2.7c-9.1,4.5-17.7,3.4-25.4-2.3
		c-7.1-5.3-9-13.3-7.4-21.8c1.7-8.7,7.6-13.9,16.1-16.2c5.2-1.4,9.8,0,13.8,3.4c2.2,1.9,3,4.6,2.1,7.3c-0.9,2.8-3.2,2.1-5.6,1.8
		c-6-0.7-9.5,1.8-9.8,8.1c-0.2,6.5,3.6,10.3,9.2,11.5c5.6,1.2,10.3-2.8,11.4-7.5c2.9-12.5,1-24.9-4.3-36.6c-1.2-2.7-4-5.2-7.5-5.2
		c-4,0-5,2.8-4.8,6.5c0.3,7.4-5.5,4.6-8.6,4.2c-6.2-0.8-9-5.1-8.8-11.5c0.1-4.1,0.9-7.1,5.9-7c9.4,0.1,18.9-0.6,28.3,0.3
		c9,0.8,12.2,7.9,14.1,15.8C1040.8,855.1,1041,871.8,1047.7,889.5z"/>
	<path class="st1" d="M1249.8,889.2c-8.7,0-15.8,0-24.1,0c6.1-13.6,3.8-27.4,4-41c0.1-7.4-2.2-14.3-10.8-13.9
		c-7.1,0.3-10.9,5.9-10.5,13.3c0.8,13.7-2.6,27.6,3,40.8c-6.5,2.6-13.6,2.9-18.8,0.7c-8.1-3.4,0.6-10.2-0.6-15.9
		c-2.4-12.6,2.4-25.8-3-38.4c-1.4-3.2,15.1-12.2,18.4-9.1c4.2,3.9,5.9,1.2,9-0.2c16.5-7.5,26.5-1.2,28.6,17.1
		C1246.8,857.6,1242.7,873.1,1249.8,889.2z"/>
	<path class="st1" d="M976.4,888c-6.3,2.8-13.5,3-18.7,0.9c-7.9-3.3,0.5-10.2-0.5-15.8c-1.5-8.3-0.6-17-0.3-25.6
		c0.2-7.2-2.2-13.5-9.6-13.6c-6.9-0.1-11.3,6.2-11.3,12.9c-0.1,13.8-2.6,27.8,3.1,40.9c-3.7,2.8-7.5,1.5-11,1.8
		c-8,0.7-12.9,1.2-9.9-10.9c3-11.9,1.1-25.1,0.5-37.6c-0.5-9.7,7.7-18.4,16.4-14.6c4.5,2,6.4,0.2,9.4-1c17.1-6.9,28.4,0.5,29.1,18.7
		C974.3,858.8,971.3,873.7,976.4,888z"/>
	<path class="st1" d="M759.9,823.3c3.4,22.8-3,44.4,4.8,65.5c-6.7,0.9-13.5,2.9-18.6-1.1c-4.5-3.6-6.9-1.3-10.5,0.3
		c-15.8,7.1-25.9,0.5-27-16.9c-0.8-11.9,1.5-23.6-2.9-35.8c-3.5-9.6,8.8-7.1,13.6-9.7c5.7-3,4,3.8,4.1,6.6
		c0.3,11.2-0.1,22.5,0.3,33.7c0.2,6.5,1.6,12.9,10.4,12.5c8.1-0.4,10.7-5.4,10.2-12.7c-0.7-9.8,0.2-19.4-1.2-29.3
		C741.3,824,754.6,829.5,759.9,823.3z"/>
	<path class="st0" d="M1269.6,198.5c4-0.3,7.9,0.1,11.8-2.1c2.7-1.5,6.3-1.9,7.3,2.7c3.8,17.1,17.5,25.2,30.7,33.9
		c4.5,3,13.1,3.6,11.3,11c-2.1,8.3-8.9,7.2-16.3,5.2c-7.6-2.1-15.9,0.1-23.9-2.8c-4.9-1.7-8.8-3.8-11.7-8
		c-8.8,14.6-18.1,17.9-27.7,10c-4.3-3.5-7.1-6.8-1.4-11.8c8.4-7.5,5.6-12.9-3.8-16.6c-7-2.7-11.7-8.4-16.4-13.7
		c-4.6-5.1-4.1-10.2,4.7-10.1c9.5,0.1,18.5-0.2,27.4-5.1c5.9-3.2,9.1,1,8.4,7.5c-7.9-1.4-14.5,4-22.1,4.4c-2.8,0.2-5.8,0.9-5.7,4.2
		c0,2.3,2.3,3.5,4.5,4.4c3.7,1.5,7.2,3.9,11,5c13,3.9,13.3,4.6,3.8,15.8c-2.6,3.1-6.3,5.5-4.8,10.2c0.3,0.8,2.3,1.6,3.4,1.5
		c4.4-0.4,6.7-2.8,8.3-7.3c3.4-9.9,8.9-9.1,16-2.7c7,6.3,15.5,9.4,26,5.9c-9.6-14.1-21.2-24.4-34.3-32.8
		C1272.2,205.1,1268.8,203.5,1269.6,198.5z"/>
	<path class="st1" d="M1135.4,834.9c0,5.7-0.4,11.5,0.1,17.1c0.7,8.5,4.6,15.2,12.3,19.6c9.4,5.3,16.6,2.4,21.3-6.3
		c4.5-8.4,0.6-21.8-6.4-25.2c-3.2-1.5-6.8-1.9-8.4,1.2c-3.6,7.1-7.4,5.2-10.9,0.6c-4.1-5.4-3.9-11.4,1.5-15.6
		c7.1-5.6,15-5.3,22.2,0.5c16.3,13.1,17.6,42.2,2.5,56.8c-7,6.8-15.8,9.2-24.9,5.7c-11.3-4.4-17.8-13.5-19.4-25.5
		C1123.6,853.3,1126.6,843.6,1135.4,834.9z"/>
	<path class="st0" d="M1110.4,323.6c-3.2,5-3.5,10.8-4.3,16.6c-0.7,5.2-3.7,10.4,5,12.1c3.6,0.7,3.4,5.8,2.1,8.2
		c-10.4,18.8-22.8,35.4-45,42.2c-4.4,1.3-7.1,1-9.2-1.9c-2.6-3.7-2.1-8,1.8-10.7c9.9-6.8,6.9-11.7-1.7-16.6
		c-4.7-2.7-8.2-6.8-10.3-12.1c-2.1-5.4-6.2-12-1.8-16.3c4.1-4,8.3,2.8,12.3,4.9c14.9,7.8,20.4,5.8,26.4-10.1c3-8,5.9-15.9,13.8-20.9
		C1105.8,315.1,1108.5,317.4,1110.4,323.6z M1097.9,329.8c-4.1,9.2-5.5,20.5-10.8,27.7c-7,9.7-20.6,0.6-31.1,1.1
		c0.4,14.9,35.3,12.5,15,36.8c10-1.4,9.5-10.1,14.8-13.3c9.6-5.8,21.1-11,11.1-25.6c-0.9-1.3,0.4-4.3,1.2-6.4
		C1100.5,343.5,1100,336.9,1097.9,329.8z"/>
	<path class="st0" d="M1176.1,350.2c-5.6,1-9.5-2.5-11.9-7.6c-2.7-5.7,2.9-6.8,6-8.5c15.7-8.9,10.8-23.7,6.8-34.7
		c-5-13.8,4.5-22.3,6.9-33.1c0.8-3.6,5.9-2.5,7.7,0.3c5.1,7.9,13.3,11.4,20.7,16.3c2.9,1.9,5.7,4.8,5.7,8.7
		c-0.1,6.9,2.1,10.8,9.7,11.6c3.9,0.4,7.5,3.2,4.8,8.6c-10.8,21.3-32.2,28.2-51.5,38.1C1179.8,350.4,1178.3,350.1,1176.1,350.2z
		 M1202.1,332.5c6.8,0.4,17.7-10.4,13.8-15c-6.6-7.8-4.1-15.9-4.7-24c-0.7-8.8-8.4-10-13.9-12.9c-6.6-3.4-5.6,5-8.9,7.2
		c-5,3.3-2.4,8.6-3.2,13.1c-1.8,10.3,10.4,22.6-4.2,31.2c-2.9,1.7-8.8,4.3-4.7,8.6c3.3,3.5,9,1.6,11.3-2.9
		C1190.8,331.7,1195.7,331.7,1202.1,332.5z"/>
	<path class="st0" d="M990.4,263.8c-4.7,0.5-10.7,2.2-12.4-6.5c-0.6-2.9-4.5-1.9-7.1-2.3c-11.9-1.8-14.5-8.2-7.5-18.4
		c3.4-4.9,9.5-8.7,4.6-16.2c-1.8-2.7,0.6-4.3,3.5-5.7c11.1-5.4,21.5-13.7,35.1-6.6c1.8,0.9,4.5,0.5,6.7,0.3
		c20.6-2.3,20.5,3.9,14.3,22C1019.3,254.4,1010,262.8,990.4,263.8z M976.9,219c4.2,0.8,5.5,1.3,6.8,1.2c5.1-0.3,9.3,1,9.6,6.8
		c0.3,6.6-5,6-9.5,6.5c-3.5,0.4-7.1,1.3-10.2,2.9c-3.6,1.8-7.2,5-5.2,9.5c1.5,3.5,5.2,4.2,9.3,2.9c6.2-2,11.6-0.7,14.8,5.6
		c1.2,2.3,2.7,3.2,5.3,2.7c14.8-2.4,17-15.5,22.2-26.1c4.5-9.1-5.3-6.8-7.8-10C1001.6,207.8,991.2,211.6,976.9,219z"/>
	<path class="st0" d="M1098.1,225.2c-6.5-4.8-12.3-3.4-18.8-2.5c-16.7,2.2-8.8,8.3-3.2,14.3c11.3,12.2,11.1,13.7-3.6,21.9
		c-1.2,0.7-2.4,1.2-3.6,1.9c-3.9,2-5.8,5.5-6.4,9.7c-0.2,1.9,0.9,3.8,3,3.6c4.1-0.3,7.9-1.9,10.5-5.3c3.4-4.6,6.4-12.3,12.6-9.6
		c5.5,2.4,1.9,10.5,2.4,16.1c0.4,3.8,0.1,7.6,0.1,11.5c4.3-0.4,1.2-8.8,6.4-6.4c4.3,1.9,0.8,6.3,0.2,9.5c-1.4,6.8-7.1,9.4-13.2,14.7
		c0-11.2,0-20.4,0-29c-5.6-3-5.8,2-8,3.5c-6.1,4.2-12.8,5.5-18-0.4c-5-5.7-4.5-12,1.1-18.1c15.5-16.8,15.1-16.7-1-32.6
		c-3.5-3.5-12.1-5.5-7.8-13.3c4.1-7.4,9.8-1.4,14.2,0c9,2.8,18.9-3.7,27.4,3C1094.3,219.3,1097.2,219.9,1098.1,225.2z"/>
	<path class="st1" d="M1069.9,799.3c7.5,9.4-3.8,26,16.1,26.9c-22.1,11.1-9.8,29-12.1,43.3c-1.2,7.6,3.6,12.6,13.6,10.7
		c-5,10.4-12.6,11.5-20.8,10c-8.7-1.6-9-9-9.3-15.8c-0.3-10.8,2-22.1-0.7-32.2c-3.2-11.7-4-20.1,7.1-27.7
		C1067.1,812.3,1067.5,805.8,1069.9,799.3z"/>
	<path class="st1" d="M899.5,822.5c3.9,23.4-2.8,45.1,5.1,65.7c-1,0.5-1.8,1.2-2.6,1.2c-6.2-0.1-13.8,1.8-18.4-1
		c-5.1-3.1,1.2-10,0.5-15.7c-1.6-12.3,0-24.8-1.4-37.4C881.6,825.2,894.3,829.7,899.5,822.5z"/>
	<path class="st1" d="M1116.8,889.2c-8.5,0-15.6,0-22.9,0c5-14.7,2.5-29.4,2.7-43.8c0.2-15.2-0.3-15.2,16-21
		C1115.9,845.7,1109.9,867.4,1116.8,889.2z"/>
	<path class="st0" d="M872.1,396.1c1.9-10.7,5.5-19.5,19.1-17c4,0.7,10.4-2.6,11.4,3.3c0.8,4.8-1.1,11.6-6.1,14.1
		c-13,6.3-22,15.9-27.8,28.8c-1,2.2-2.7,3.8-5.2,2.8c-1-0.4-2.3-2.4-2-2.9c4.7-9.3,4.2-19.8,7.4-29.4c0.1-0.3,2.2,0.1,3.4,0.1
		c7,11.4,11.4,0.3,16.5-2.2c2.1-1,5.8-4.2,2.3-7.2c-2.3-2-6-1.7-8.4,0.8C879.5,390.6,878.1,396,872.1,396.1z"/>
	<path class="st0" d="M1002.1,341.9c-0.1-1.3-0.8-3.2-0.2-3.9c8.7-10.4,8.8-17.9-2.4-25.8c-11.7-8.2-10.6-19.3-11.7-32
		c4.3,1.7,8.5,2.5,7.9,5.7c-2.4,12.9,5.3,19.1,14,26.4c9.5,8,4.2,21.3,7.6,31.9c1,3.2-3,3.8-5.8,2.6c-3.3-1.4-6.4-3.3-9.6-4.9
		C1001.9,341.7,1002.1,341.9,1002.1,341.9z"/>
	<path class="st0" d="M844.2,501.4c2.4-11.7-10.4-15.8-12-25.6c-1-5.9-0.7-10.5,3.2-14.7c2.8-3,8.5-3.7,8.6,0.1
		C844,474.5,856.9,487.4,844.2,501.4z"/>
	<path class="st0" d="M1103.7,273.6c-0.3-2.4-1.3-4.5-0.6-5.6c7.5-12.1,4-21.7-6.2-30.2c-2.8-2.3-2.2-6,0.1-8.4c2.4-2.5,5-1,6.3,1.7
		c2.7,5.4,14.3,2.7,12.3,9.5C1112.3,251.4,1116.6,265.2,1103.7,273.6z"/>
	<path class="st1" d="M892.9,799.5c5.4,0.6,8.4,3.4,8.6,8.5c0.2,4.5-2.5,7.9-6.8,8.5c-5.1,0.7-8.5-2.9-9.2-7.5
		C884.8,803.7,888.8,801.3,892.9,799.5z"/>
	<path class="st0" d="M861,462.1c7.9-1.3,16.3-1.2,13-12.3c-0.2-0.7,1.2-2.7,1.8-2.6c1.6,0.2,3.6,0.6,4.5,1.7
		c2.9,3.7-0.2,21.8-4.3,23.7C867,476.8,864.7,469.9,861,462.1z"/>
	<path class="st1" d="M1106.6,816.7c-4.4-0.5-8.3-3.4-9-7.9c-0.7-5,3.7-8.2,8.1-8.8c4.1-0.6,7.6,1.6,7.9,6.8
		C1113.8,811.8,1112.6,815.6,1106.6,816.7z"/>
	<path class="st0" d="M972.1,338.9c2.3-4.8,4.6-9.5,6.9-14.3c1.6-3.4,4.6-4.1,7.8-3.5c1.5,0.3,3.6,1.4,4.1,2.7c2,5-3.1,3.8-5,5.5
		c-4.2,3.6-5.5,10.2-11.9,11.7C973.3,340.3,972.7,339.6,972.1,338.9z"/>
	<path class="st0" d="M998.6,328.5c3,1.1,3.2,2.7,2.7,4.5c-0.4,1.7-1.9,1.7-2.8,1c-0.9-0.7-1.6-2.1-1.5-3.2
		C997.1,329.7,997.7,328.1,998.6,328.5z"/>
	<path class="st2" d="M890.2,639.1c8.3-16.6,21.6-26.6,34.4-37.6c-0.3,8.5-4,16.4,3.8,23.3c3.2,2.8,0.9,6.4-3,8.2
		C914.7,638,903.7,640.2,890.2,639.1z"/>
	<path class="st2" d="M850.8,291.6c-0.5,3.8-2.4,5.6-5.3,5.5c-3.9-0.1-7-2.7-7.2-6.3c-0.2-3.5,3.6-2.8,6-2.8
		C847.4,287.9,850.6,288,850.8,291.6z"/>
	<path class="st2" d="M988.3,523c-1.1,6-1.9,9.9-5.9,11.9c-0.5,0.3-2.7-1.1-2.9-1.9C978.5,527.3,982.3,525.3,988.3,523z"/>
	<path class="st2" d="M1030.4,443.1c2.7,0.8,6.3,0.5,7,4.3c0.2,0.9-0.8,2.6-1.7,2.9c-4,1.6-6.4-0.8-8.3-4
		C1028.4,445.3,1029.4,444.2,1030.4,443.1z"/>
	<path class="st2" d="M1010,549.9c0.3-0.6,0.7-1.2,1-1.8c1.7,1.5,0.4,1.7-0.8,1.9C1010.2,550,1010,549.9,1010,549.9z"/>
	<polygon class="st2" points="958.2,661.8 957.3,662.2 957.3,661.3 	"/>
	<path class="st2" d="M674.7,337.4c-0.1,0.3-0.3,0.5-0.4,0.8c-0.4-0.3-0.8-0.6-1.2-0.9c0.3-0.3,0.6-0.5,0.8-0.8
		C674.2,336.8,674.4,337.1,674.7,337.4z"/>
	<path class="st0" d="M831.6,579.6c0.2-2.2,0.8-4.4,0.6-6.6c-0.6-4.5-5-9.9,1.2-13.1c7.5-4,5.5,4,7.6,6.9c1.4,2,3.1-0.2,4.6-0.4
		c5.4-0.6,7.1,2.7,7.3,7.2c0.3,5.4-3,6.8-7.7,6.6c-4.4-0.2-8.9-0.3-13.3-0.4C831.8,579.8,831.6,579.6,831.6,579.6z"/>
	<path class="st0" d="M960.2,491.7c1-0.1,2-0.3,3-0.4c-0.3,0.9-0.6,1.9-0.8,2.8C961.6,493.3,960.9,492.5,960.2,491.7z"/>
</g>
</svg>
